<?xml version="1.0" encoding="utf-8" standalone="no"?>
<!DOCTYPE svg PUBLIC "-//W3C//DTD SVG 1.1//EN"
  "http://www.w3.org/Graphics/SVG/1.1/DTD/svg11.dtd">
<svg xmlns:xlink="http://www.w3.org/1999/xlink" width="360pt" height="360pt" viewBox="0 0 360 360" xmlns="http://www.w3.org/2000/svg" version="1.1">
 <metadata>
  <rdf:RDF xmlns:dc="http://purl.org/dc/elements/1.1/" xmlns:cc="http://creativecommons.org/ns#" xmlns:rdf="http://www.w3.org/1999/02/22-rdf-syntax-ns#">
   <cc:Work>
    <dc:type rdf:resource="http://purl.org/dc/dcmitype/StillImage"/>
    <dc:date>2022-12-10T14:58:10.364043</dc:date>
    <dc:format>image/svg+xml</dc:format>
    <dc:creator>
     <cc:Agent>
      <dc:title>Matplotlib v3.5.1, https://matplotlib.org/</dc:title>
     </cc:Agent>
    </dc:creator>
   </cc:Work>
  </rdf:RDF>
 </metadata>
 <defs>
  <style type="text/css">*{stroke-linejoin: round; stroke-linecap: butt}</style>
 </defs>
 <g id="figure_1">
  <g id="patch_1">
   <path d="M 0 360 
L 360 360 
L 360 0 
L 0 0 
z
" style="fill: #ffffff"/>
  </g>
  <g id="axes_1">
   <g id="patch_2">
    <path d="M 45 320.4 
L 324 320.4 
L 324 43.2 
L 45 43.2 
z
" style="fill: #ffffff"/>
   </g>
   <g id="matplotlib.axis_1">
    <g id="xtick_1">
     <g id="line2d_1">
      <defs>
       <path id="mcd56566799" d="M 0 0 
L 0 3.5 
" style="stroke: #000000; stroke-width: 0.8"/>
      </defs>
      <g>
       <use xlink:href="#mcd56566799" x="57.681818" y="320.4" style="stroke: #000000; stroke-width: 0.8"/>
      </g>
     </g>
     <g id="text_1">
      <!-- 0.0 -->
      <g transform="translate(49.730256 334.998438)scale(0.1 -0.1)">
       <defs>
        <path id="DejaVuSans-30" d="M 2034 4250 
Q 1547 4250 1301 3770 
Q 1056 3291 1056 2328 
Q 1056 1369 1301 889 
Q 1547 409 2034 409 
Q 2525 409 2770 889 
Q 3016 1369 3016 2328 
Q 3016 3291 2770 3770 
Q 2525 4250 2034 4250 
z
M 2034 4750 
Q 2819 4750 3233 4129 
Q 3647 3509 3647 2328 
Q 3647 1150 3233 529 
Q 2819 -91 2034 -91 
Q 1250 -91 836 529 
Q 422 1150 422 2328 
Q 422 3509 836 4129 
Q 1250 4750 2034 4750 
z
" transform="scale(0.015625)"/>
        <path id="DejaVuSans-2e" d="M 684 794 
L 1344 794 
L 1344 0 
L 684 0 
L 684 794 
z
" transform="scale(0.015625)"/>
       </defs>
       <use xlink:href="#DejaVuSans-30"/>
       <use xlink:href="#DejaVuSans-2e" x="63.623047"/>
       <use xlink:href="#DejaVuSans-30" x="95.410156"/>
      </g>
     </g>
    </g>
    <g id="xtick_2">
     <g id="line2d_2">
      <g>
       <use xlink:href="#mcd56566799" x="108.409091" y="320.4" style="stroke: #000000; stroke-width: 0.8"/>
      </g>
     </g>
     <g id="text_2">
      <!-- 0.2 -->
      <g transform="translate(100.457528 334.998438)scale(0.1 -0.1)">
       <defs>
        <path id="DejaVuSans-32" d="M 1228 531 
L 3431 531 
L 3431 0 
L 469 0 
L 469 531 
Q 828 903 1448 1529 
Q 2069 2156 2228 2338 
Q 2531 2678 2651 2914 
Q 2772 3150 2772 3378 
Q 2772 3750 2511 3984 
Q 2250 4219 1831 4219 
Q 1534 4219 1204 4116 
Q 875 4013 500 3803 
L 500 4441 
Q 881 4594 1212 4672 
Q 1544 4750 1819 4750 
Q 2544 4750 2975 4387 
Q 3406 4025 3406 3419 
Q 3406 3131 3298 2873 
Q 3191 2616 2906 2266 
Q 2828 2175 2409 1742 
Q 1991 1309 1228 531 
z
" transform="scale(0.015625)"/>
       </defs>
       <use xlink:href="#DejaVuSans-30"/>
       <use xlink:href="#DejaVuSans-2e" x="63.623047"/>
       <use xlink:href="#DejaVuSans-32" x="95.410156"/>
      </g>
     </g>
    </g>
    <g id="xtick_3">
     <g id="line2d_3">
      <g>
       <use xlink:href="#mcd56566799" x="159.136364" y="320.4" style="stroke: #000000; stroke-width: 0.8"/>
      </g>
     </g>
     <g id="text_3">
      <!-- 0.4 -->
      <g transform="translate(151.184801 334.998438)scale(0.1 -0.1)">
       <defs>
        <path id="DejaVuSans-34" d="M 2419 4116 
L 825 1625 
L 2419 1625 
L 2419 4116 
z
M 2253 4666 
L 3047 4666 
L 3047 1625 
L 3713 1625 
L 3713 1100 
L 3047 1100 
L 3047 0 
L 2419 0 
L 2419 1100 
L 313 1100 
L 313 1709 
L 2253 4666 
z
" transform="scale(0.015625)"/>
       </defs>
       <use xlink:href="#DejaVuSans-30"/>
       <use xlink:href="#DejaVuSans-2e" x="63.623047"/>
       <use xlink:href="#DejaVuSans-34" x="95.410156"/>
      </g>
     </g>
    </g>
    <g id="xtick_4">
     <g id="line2d_4">
      <g>
       <use xlink:href="#mcd56566799" x="209.863636" y="320.4" style="stroke: #000000; stroke-width: 0.8"/>
      </g>
     </g>
     <g id="text_4">
      <!-- 0.6 -->
      <g transform="translate(201.912074 334.998438)scale(0.1 -0.1)">
       <defs>
        <path id="DejaVuSans-36" d="M 2113 2584 
Q 1688 2584 1439 2293 
Q 1191 2003 1191 1497 
Q 1191 994 1439 701 
Q 1688 409 2113 409 
Q 2538 409 2786 701 
Q 3034 994 3034 1497 
Q 3034 2003 2786 2293 
Q 2538 2584 2113 2584 
z
M 3366 4563 
L 3366 3988 
Q 3128 4100 2886 4159 
Q 2644 4219 2406 4219 
Q 1781 4219 1451 3797 
Q 1122 3375 1075 2522 
Q 1259 2794 1537 2939 
Q 1816 3084 2150 3084 
Q 2853 3084 3261 2657 
Q 3669 2231 3669 1497 
Q 3669 778 3244 343 
Q 2819 -91 2113 -91 
Q 1303 -91 875 529 
Q 447 1150 447 2328 
Q 447 3434 972 4092 
Q 1497 4750 2381 4750 
Q 2619 4750 2861 4703 
Q 3103 4656 3366 4563 
z
" transform="scale(0.015625)"/>
       </defs>
       <use xlink:href="#DejaVuSans-30"/>
       <use xlink:href="#DejaVuSans-2e" x="63.623047"/>
       <use xlink:href="#DejaVuSans-36" x="95.410156"/>
      </g>
     </g>
    </g>
    <g id="xtick_5">
     <g id="line2d_5">
      <g>
       <use xlink:href="#mcd56566799" x="260.590909" y="320.4" style="stroke: #000000; stroke-width: 0.8"/>
      </g>
     </g>
     <g id="text_5">
      <!-- 0.8 -->
      <g transform="translate(252.639347 334.998438)scale(0.1 -0.1)">
       <defs>
        <path id="DejaVuSans-38" d="M 2034 2216 
Q 1584 2216 1326 1975 
Q 1069 1734 1069 1313 
Q 1069 891 1326 650 
Q 1584 409 2034 409 
Q 2484 409 2743 651 
Q 3003 894 3003 1313 
Q 3003 1734 2745 1975 
Q 2488 2216 2034 2216 
z
M 1403 2484 
Q 997 2584 770 2862 
Q 544 3141 544 3541 
Q 544 4100 942 4425 
Q 1341 4750 2034 4750 
Q 2731 4750 3128 4425 
Q 3525 4100 3525 3541 
Q 3525 3141 3298 2862 
Q 3072 2584 2669 2484 
Q 3125 2378 3379 2068 
Q 3634 1759 3634 1313 
Q 3634 634 3220 271 
Q 2806 -91 2034 -91 
Q 1263 -91 848 271 
Q 434 634 434 1313 
Q 434 1759 690 2068 
Q 947 2378 1403 2484 
z
M 1172 3481 
Q 1172 3119 1398 2916 
Q 1625 2713 2034 2713 
Q 2441 2713 2670 2916 
Q 2900 3119 2900 3481 
Q 2900 3844 2670 4047 
Q 2441 4250 2034 4250 
Q 1625 4250 1398 4047 
Q 1172 3844 1172 3481 
z
" transform="scale(0.015625)"/>
       </defs>
       <use xlink:href="#DejaVuSans-30"/>
       <use xlink:href="#DejaVuSans-2e" x="63.623047"/>
       <use xlink:href="#DejaVuSans-38" x="95.410156"/>
      </g>
     </g>
    </g>
    <g id="xtick_6">
     <g id="line2d_6">
      <g>
       <use xlink:href="#mcd56566799" x="311.318182" y="320.4" style="stroke: #000000; stroke-width: 0.8"/>
      </g>
     </g>
     <g id="text_6">
      <!-- 1.0 -->
      <g transform="translate(303.366619 334.998438)scale(0.1 -0.1)">
       <defs>
        <path id="DejaVuSans-31" d="M 794 531 
L 1825 531 
L 1825 4091 
L 703 3866 
L 703 4441 
L 1819 4666 
L 2450 4666 
L 2450 531 
L 3481 531 
L 3481 0 
L 794 0 
L 794 531 
z
" transform="scale(0.015625)"/>
       </defs>
       <use xlink:href="#DejaVuSans-31"/>
       <use xlink:href="#DejaVuSans-2e" x="63.623047"/>
       <use xlink:href="#DejaVuSans-30" x="95.410156"/>
      </g>
     </g>
    </g>
    <g id="text_7">
     <!-- False Positive Rate -->
     <g transform="translate(138.033594 348.676562)scale(0.1 -0.1)">
      <defs>
       <path id="DejaVuSans-46" d="M 628 4666 
L 3309 4666 
L 3309 4134 
L 1259 4134 
L 1259 2759 
L 3109 2759 
L 3109 2228 
L 1259 2228 
L 1259 0 
L 628 0 
L 628 4666 
z
" transform="scale(0.015625)"/>
       <path id="DejaVuSans-61" d="M 2194 1759 
Q 1497 1759 1228 1600 
Q 959 1441 959 1056 
Q 959 750 1161 570 
Q 1363 391 1709 391 
Q 2188 391 2477 730 
Q 2766 1069 2766 1631 
L 2766 1759 
L 2194 1759 
z
M 3341 1997 
L 3341 0 
L 2766 0 
L 2766 531 
Q 2569 213 2275 61 
Q 1981 -91 1556 -91 
Q 1019 -91 701 211 
Q 384 513 384 1019 
Q 384 1609 779 1909 
Q 1175 2209 1959 2209 
L 2766 2209 
L 2766 2266 
Q 2766 2663 2505 2880 
Q 2244 3097 1772 3097 
Q 1472 3097 1187 3025 
Q 903 2953 641 2809 
L 641 3341 
Q 956 3463 1253 3523 
Q 1550 3584 1831 3584 
Q 2591 3584 2966 3190 
Q 3341 2797 3341 1997 
z
" transform="scale(0.015625)"/>
       <path id="DejaVuSans-6c" d="M 603 4863 
L 1178 4863 
L 1178 0 
L 603 0 
L 603 4863 
z
" transform="scale(0.015625)"/>
       <path id="DejaVuSans-73" d="M 2834 3397 
L 2834 2853 
Q 2591 2978 2328 3040 
Q 2066 3103 1784 3103 
Q 1356 3103 1142 2972 
Q 928 2841 928 2578 
Q 928 2378 1081 2264 
Q 1234 2150 1697 2047 
L 1894 2003 
Q 2506 1872 2764 1633 
Q 3022 1394 3022 966 
Q 3022 478 2636 193 
Q 2250 -91 1575 -91 
Q 1294 -91 989 -36 
Q 684 19 347 128 
L 347 722 
Q 666 556 975 473 
Q 1284 391 1588 391 
Q 1994 391 2212 530 
Q 2431 669 2431 922 
Q 2431 1156 2273 1281 
Q 2116 1406 1581 1522 
L 1381 1569 
Q 847 1681 609 1914 
Q 372 2147 372 2553 
Q 372 3047 722 3315 
Q 1072 3584 1716 3584 
Q 2034 3584 2315 3537 
Q 2597 3491 2834 3397 
z
" transform="scale(0.015625)"/>
       <path id="DejaVuSans-65" d="M 3597 1894 
L 3597 1613 
L 953 1613 
Q 991 1019 1311 708 
Q 1631 397 2203 397 
Q 2534 397 2845 478 
Q 3156 559 3463 722 
L 3463 178 
Q 3153 47 2828 -22 
Q 2503 -91 2169 -91 
Q 1331 -91 842 396 
Q 353 884 353 1716 
Q 353 2575 817 3079 
Q 1281 3584 2069 3584 
Q 2775 3584 3186 3129 
Q 3597 2675 3597 1894 
z
M 3022 2063 
Q 3016 2534 2758 2815 
Q 2500 3097 2075 3097 
Q 1594 3097 1305 2825 
Q 1016 2553 972 2059 
L 3022 2063 
z
" transform="scale(0.015625)"/>
       <path id="DejaVuSans-20" transform="scale(0.015625)"/>
       <path id="DejaVuSans-50" d="M 1259 4147 
L 1259 2394 
L 2053 2394 
Q 2494 2394 2734 2622 
Q 2975 2850 2975 3272 
Q 2975 3691 2734 3919 
Q 2494 4147 2053 4147 
L 1259 4147 
z
M 628 4666 
L 2053 4666 
Q 2838 4666 3239 4311 
Q 3641 3956 3641 3272 
Q 3641 2581 3239 2228 
Q 2838 1875 2053 1875 
L 1259 1875 
L 1259 0 
L 628 0 
L 628 4666 
z
" transform="scale(0.015625)"/>
       <path id="DejaVuSans-6f" d="M 1959 3097 
Q 1497 3097 1228 2736 
Q 959 2375 959 1747 
Q 959 1119 1226 758 
Q 1494 397 1959 397 
Q 2419 397 2687 759 
Q 2956 1122 2956 1747 
Q 2956 2369 2687 2733 
Q 2419 3097 1959 3097 
z
M 1959 3584 
Q 2709 3584 3137 3096 
Q 3566 2609 3566 1747 
Q 3566 888 3137 398 
Q 2709 -91 1959 -91 
Q 1206 -91 779 398 
Q 353 888 353 1747 
Q 353 2609 779 3096 
Q 1206 3584 1959 3584 
z
" transform="scale(0.015625)"/>
       <path id="DejaVuSans-69" d="M 603 3500 
L 1178 3500 
L 1178 0 
L 603 0 
L 603 3500 
z
M 603 4863 
L 1178 4863 
L 1178 4134 
L 603 4134 
L 603 4863 
z
" transform="scale(0.015625)"/>
       <path id="DejaVuSans-74" d="M 1172 4494 
L 1172 3500 
L 2356 3500 
L 2356 3053 
L 1172 3053 
L 1172 1153 
Q 1172 725 1289 603 
Q 1406 481 1766 481 
L 2356 481 
L 2356 0 
L 1766 0 
Q 1100 0 847 248 
Q 594 497 594 1153 
L 594 3053 
L 172 3053 
L 172 3500 
L 594 3500 
L 594 4494 
L 1172 4494 
z
" transform="scale(0.015625)"/>
       <path id="DejaVuSans-76" d="M 191 3500 
L 800 3500 
L 1894 563 
L 2988 3500 
L 3597 3500 
L 2284 0 
L 1503 0 
L 191 3500 
z
" transform="scale(0.015625)"/>
       <path id="DejaVuSans-52" d="M 2841 2188 
Q 3044 2119 3236 1894 
Q 3428 1669 3622 1275 
L 4263 0 
L 3584 0 
L 2988 1197 
Q 2756 1666 2539 1819 
Q 2322 1972 1947 1972 
L 1259 1972 
L 1259 0 
L 628 0 
L 628 4666 
L 2053 4666 
Q 2853 4666 3247 4331 
Q 3641 3997 3641 3322 
Q 3641 2881 3436 2590 
Q 3231 2300 2841 2188 
z
M 1259 4147 
L 1259 2491 
L 2053 2491 
Q 2509 2491 2742 2702 
Q 2975 2913 2975 3322 
Q 2975 3731 2742 3939 
Q 2509 4147 2053 4147 
L 1259 4147 
z
" transform="scale(0.015625)"/>
      </defs>
      <use xlink:href="#DejaVuSans-46"/>
      <use xlink:href="#DejaVuSans-61" x="48.394531"/>
      <use xlink:href="#DejaVuSans-6c" x="109.673828"/>
      <use xlink:href="#DejaVuSans-73" x="137.457031"/>
      <use xlink:href="#DejaVuSans-65" x="189.556641"/>
      <use xlink:href="#DejaVuSans-20" x="251.080078"/>
      <use xlink:href="#DejaVuSans-50" x="282.867188"/>
      <use xlink:href="#DejaVuSans-6f" x="339.544922"/>
      <use xlink:href="#DejaVuSans-73" x="400.726562"/>
      <use xlink:href="#DejaVuSans-69" x="452.826172"/>
      <use xlink:href="#DejaVuSans-74" x="480.609375"/>
      <use xlink:href="#DejaVuSans-69" x="519.818359"/>
      <use xlink:href="#DejaVuSans-76" x="547.601562"/>
      <use xlink:href="#DejaVuSans-65" x="606.78125"/>
      <use xlink:href="#DejaVuSans-20" x="668.304688"/>
      <use xlink:href="#DejaVuSans-52" x="700.091797"/>
      <use xlink:href="#DejaVuSans-61" x="767.324219"/>
      <use xlink:href="#DejaVuSans-74" x="828.603516"/>
      <use xlink:href="#DejaVuSans-65" x="867.8125"/>
     </g>
    </g>
   </g>
   <g id="matplotlib.axis_2">
    <g id="ytick_1">
     <g id="line2d_7">
      <defs>
       <path id="mecdca36f09" d="M 0 0 
L -3.5 0 
" style="stroke: #000000; stroke-width: 0.8"/>
      </defs>
      <g>
       <use xlink:href="#mecdca36f09" x="45" y="307.8" style="stroke: #000000; stroke-width: 0.8"/>
      </g>
     </g>
     <g id="text_8">
      <!-- 0.0 -->
      <g transform="translate(22.096875 311.599219)scale(0.1 -0.1)">
       <use xlink:href="#DejaVuSans-30"/>
       <use xlink:href="#DejaVuSans-2e" x="63.623047"/>
       <use xlink:href="#DejaVuSans-30" x="95.410156"/>
      </g>
     </g>
    </g>
    <g id="ytick_2">
     <g id="line2d_8">
      <g>
       <use xlink:href="#mecdca36f09" x="45" y="257.4" style="stroke: #000000; stroke-width: 0.8"/>
      </g>
     </g>
     <g id="text_9">
      <!-- 0.2 -->
      <g transform="translate(22.096875 261.199219)scale(0.1 -0.1)">
       <use xlink:href="#DejaVuSans-30"/>
       <use xlink:href="#DejaVuSans-2e" x="63.623047"/>
       <use xlink:href="#DejaVuSans-32" x="95.410156"/>
      </g>
     </g>
    </g>
    <g id="ytick_3">
     <g id="line2d_9">
      <g>
       <use xlink:href="#mecdca36f09" x="45" y="207" style="stroke: #000000; stroke-width: 0.8"/>
      </g>
     </g>
     <g id="text_10">
      <!-- 0.4 -->
      <g transform="translate(22.096875 210.799219)scale(0.1 -0.1)">
       <use xlink:href="#DejaVuSans-30"/>
       <use xlink:href="#DejaVuSans-2e" x="63.623047"/>
       <use xlink:href="#DejaVuSans-34" x="95.410156"/>
      </g>
     </g>
    </g>
    <g id="ytick_4">
     <g id="line2d_10">
      <g>
       <use xlink:href="#mecdca36f09" x="45" y="156.6" style="stroke: #000000; stroke-width: 0.8"/>
      </g>
     </g>
     <g id="text_11">
      <!-- 0.6 -->
      <g transform="translate(22.096875 160.399219)scale(0.1 -0.1)">
       <use xlink:href="#DejaVuSans-30"/>
       <use xlink:href="#DejaVuSans-2e" x="63.623047"/>
       <use xlink:href="#DejaVuSans-36" x="95.410156"/>
      </g>
     </g>
    </g>
    <g id="ytick_5">
     <g id="line2d_11">
      <g>
       <use xlink:href="#mecdca36f09" x="45" y="106.2" style="stroke: #000000; stroke-width: 0.8"/>
      </g>
     </g>
     <g id="text_12">
      <!-- 0.8 -->
      <g transform="translate(22.096875 109.999219)scale(0.1 -0.1)">
       <use xlink:href="#DejaVuSans-30"/>
       <use xlink:href="#DejaVuSans-2e" x="63.623047"/>
       <use xlink:href="#DejaVuSans-38" x="95.410156"/>
      </g>
     </g>
    </g>
    <g id="ytick_6">
     <g id="line2d_12">
      <g>
       <use xlink:href="#mecdca36f09" x="45" y="55.8" style="stroke: #000000; stroke-width: 0.8"/>
      </g>
     </g>
     <g id="text_13">
      <!-- 1.0 -->
      <g transform="translate(22.096875 59.599219)scale(0.1 -0.1)">
       <use xlink:href="#DejaVuSans-31"/>
       <use xlink:href="#DejaVuSans-2e" x="63.623047"/>
       <use xlink:href="#DejaVuSans-30" x="95.410156"/>
      </g>
     </g>
    </g>
    <g id="text_14">
     <!-- True Positive Rate -->
     <g transform="translate(16.017187 226.329687)rotate(-90)scale(0.1 -0.1)">
      <defs>
       <path id="DejaVuSans-54" d="M -19 4666 
L 3928 4666 
L 3928 4134 
L 2272 4134 
L 2272 0 
L 1638 0 
L 1638 4134 
L -19 4134 
L -19 4666 
z
" transform="scale(0.015625)"/>
       <path id="DejaVuSans-72" d="M 2631 2963 
Q 2534 3019 2420 3045 
Q 2306 3072 2169 3072 
Q 1681 3072 1420 2755 
Q 1159 2438 1159 1844 
L 1159 0 
L 581 0 
L 581 3500 
L 1159 3500 
L 1159 2956 
Q 1341 3275 1631 3429 
Q 1922 3584 2338 3584 
Q 2397 3584 2469 3576 
Q 2541 3569 2628 3553 
L 2631 2963 
z
" transform="scale(0.015625)"/>
       <path id="DejaVuSans-75" d="M 544 1381 
L 544 3500 
L 1119 3500 
L 1119 1403 
Q 1119 906 1312 657 
Q 1506 409 1894 409 
Q 2359 409 2629 706 
Q 2900 1003 2900 1516 
L 2900 3500 
L 3475 3500 
L 3475 0 
L 2900 0 
L 2900 538 
Q 2691 219 2414 64 
Q 2138 -91 1772 -91 
Q 1169 -91 856 284 
Q 544 659 544 1381 
z
M 1991 3584 
L 1991 3584 
z
" transform="scale(0.015625)"/>
      </defs>
      <use xlink:href="#DejaVuSans-54"/>
      <use xlink:href="#DejaVuSans-72" x="46.333984"/>
      <use xlink:href="#DejaVuSans-75" x="87.447266"/>
      <use xlink:href="#DejaVuSans-65" x="150.826172"/>
      <use xlink:href="#DejaVuSans-20" x="212.349609"/>
      <use xlink:href="#DejaVuSans-50" x="244.136719"/>
      <use xlink:href="#DejaVuSans-6f" x="300.814453"/>
      <use xlink:href="#DejaVuSans-73" x="361.996094"/>
      <use xlink:href="#DejaVuSans-69" x="414.095703"/>
      <use xlink:href="#DejaVuSans-74" x="441.878906"/>
      <use xlink:href="#DejaVuSans-69" x="481.087891"/>
      <use xlink:href="#DejaVuSans-76" x="508.871094"/>
      <use xlink:href="#DejaVuSans-65" x="568.050781"/>
      <use xlink:href="#DejaVuSans-20" x="629.574219"/>
      <use xlink:href="#DejaVuSans-52" x="661.361328"/>
      <use xlink:href="#DejaVuSans-61" x="728.59375"/>
      <use xlink:href="#DejaVuSans-74" x="789.873047"/>
      <use xlink:href="#DejaVuSans-65" x="829.082031"/>
     </g>
    </g>
   </g>
   <g id="line2d_13">
    <path d="M 57.681818 307.8 
L 57.784609 301.779862 
L 57.836004 301.779862 
L 57.938795 290.635143 
L 57.990191 290.635143 
L 58.092981 282.873643 
L 58.144377 282.873643 
L 58.247168 279.987957 
L 58.298563 279.987957 
L 58.401354 274.166831 
L 58.452749 274.166831 
L 58.55554 271.97769 
L 58.606936 271.97769 
L 58.709726 267.698914 
L 58.761122 267.698914 
L 58.863913 265.360513 
L 58.915308 265.360513 
L 59.018099 263.967423 
L 59.069494 263.967423 
L 59.172285 263.519645 
L 59.223681 263.519645 
L 59.326471 258.892596 
L 59.377867 258.892596 
L 59.429262 258.395064 
L 59.686239 258.295558 
L 59.78903 257.897532 
L 59.891821 257.847779 
L 59.994612 256.00691 
L 60.097403 255.907404 
L 60.200193 255.061599 
L 60.302984 255.061599 
L 60.405775 253.768016 
L 60.45717 253.768016 
L 60.559961 251.877394 
L 60.662752 251.777887 
L 60.765543 247.101086 
L 60.816938 247.101086 
L 60.919729 245.160711 
L 61.02252 245.160711 
L 61.125311 244.414413 
L 61.176706 244.414413 
L 61.279497 242.523791 
L 61.330893 242.523791 
L 61.382288 241.080948 
L 61.485079 241.080948 
L 61.58787 240.18539 
L 61.69066 240.135637 
L 61.793451 236.404146 
L 61.844847 236.404146 
L 61.947637 235.210069 
L 62.101824 235.160316 
L 62.204615 232.722409 
L 62.358801 232.622902 
L 62.461592 231.428825 
L 62.512987 231.428825 
L 62.615778 230.284501 
L 62.667173 230.284501 
L 62.769964 229.040671 
L 62.872755 228.941165 
L 62.975546 227.946101 
L 63.026941 227.946101 
L 63.078337 226.70227 
L 63.232523 226.602764 
L 63.335314 225.806713 
L 63.386709 225.806713 
L 63.4895 224.861402 
L 63.540895 224.861402 
L 63.643686 223.816584 
L 63.695082 223.816584 
L 63.797872 223.219546 
L 63.849268 223.219546 
L 63.952059 222.124975 
L 64.003454 222.124975 
L 64.106245 221.627443 
L 64.15764 221.627443 
L 64.260431 220.33386 
L 64.311826 220.33386 
L 64.414617 218.94077 
L 64.466013 218.94077 
L 64.568804 217.398421 
L 64.620199 217.398421 
L 64.72299 216.751629 
L 64.774385 216.751629 
L 64.877176 215.905824 
L 64.979967 215.856071 
L 65.082758 214.413228 
L 65.134153 214.413228 
L 65.236944 213.865943 
L 65.339735 213.766436 
L 65.442526 213.268904 
L 65.493921 213.268904 
L 65.596712 212.4231 
L 65.648107 212.4231 
L 65.750898 211.179269 
L 65.802293 211.179269 
L 65.905084 209.48766 
L 65.95648 209.48766 
L 66.059271 208.542349 
L 66.162061 208.442843 
L 66.264852 206.552221 
L 66.316248 206.552221 
L 66.419038 205.656663 
L 66.521829 205.60691 
L 66.62462 204.910365 
L 66.727411 204.810859 
L 66.830202 204.114314 
L 66.881597 204.114314 
L 66.984388 202.920237 
L 67.035783 202.920237 
L 67.138574 202.074432 
L 67.18997 202.074432 
L 67.29276 200.930109 
L 67.344156 200.930109 
L 67.446947 199.138993 
L 67.549737 199.039487 
L 67.652528 198.342942 
L 67.755319 198.243435 
L 67.85811 197.54689 
L 67.909505 197.54689 
L 67.960901 197.298124 
L 68.115087 197.298124 
L 68.217878 195.606515 
L 68.269273 195.606515 
L 68.320669 195.307996 
L 68.42346 195.307996 
L 68.52625 194.710958 
L 68.680437 194.661204 
L 68.680437 194.561698 
L 68.834623 194.561698 
L 68.937414 192.820336 
L 69.040204 192.720829 
L 69.142995 190.879961 
L 69.194391 190.879961 
L 69.297182 190.382428 
L 69.348577 190.382428 
L 69.348577 189.984403 
L 69.554159 189.984403 
L 69.656949 189.536624 
L 69.708345 189.536624 
L 69.811136 187.845015 
L 69.862531 187.845015 
L 69.965322 186.451925 
L 70.068113 186.402172 
L 70.119508 186.103653 
L 70.222299 186.103653 
L 70.32509 185.556367 
L 70.427881 185.506614 
L 70.479276 184.113524 
L 70.582067 184.113524 
L 70.684858 183.566239 
L 70.736253 183.566239 
L 70.839044 182.770188 
L 70.890439 182.770188 
L 70.99323 181.476604 
L 71.044626 181.476604 
L 71.147416 180.6308 
L 71.250207 180.6308 
L 71.352998 179.486476 
L 71.404393 179.486476 
L 71.507184 177.645607 
L 71.55858 177.645607 
L 71.661371 177.098322 
L 71.712766 177.098322 
L 71.764161 176.700296 
L 71.866952 176.700296 
L 71.969743 175.953998 
L 72.021138 175.953998 
L 72.123929 175.35696 
L 72.175325 175.35696 
L 72.278116 174.958934 
L 72.432302 174.958934 
L 72.535093 174.461402 
L 72.586488 174.461402 
L 72.689279 173.81461 
L 72.740674 173.81461 
L 72.843465 173.118065 
L 72.89486 173.118065 
L 72.997651 172.123001 
L 73.100442 172.123001 
L 73.151838 171.675222 
L 73.254628 171.675222 
L 73.357419 170.580652 
L 73.511605 170.481145 
L 73.614396 169.386575 
L 73.768582 169.287068 
L 73.871373 168.192498 
L 73.922769 168.192498 
L 74.02556 167.396446 
L 74.12835 167.396446 
L 74.179746 166.849161 
L 74.385327 166.799408 
L 74.436723 166.301876 
L 74.590909 166.301876 
L 74.642305 165.456071 
L 74.847886 165.356565 
L 74.950677 164.3615 
L 75.002072 164.3615 
L 75.104863 163.963475 
L 75.207654 163.963475 
L 75.310445 163.26693 
L 75.36184 163.26693 
L 75.36184 162.868904 
L 75.516027 162.868904 
L 75.618817 161.973346 
L 75.773004 161.87384 
L 75.773004 161.774334 
L 75.92719 161.774334 
L 76.029981 160.281737 
L 76.184167 160.182231 
L 76.286958 159.336426 
L 76.441144 159.286673 
L 76.543935 158.988154 
L 76.646726 158.988154 
L 76.749516 158.590128 
L 76.800912 158.590128 
L 76.903703 157.147285 
L 77.006494 157.147285 
L 77.006494 156.400987 
L 77.212075 156.351234 
L 77.314866 156.102468 
L 77.366261 156.102468 
L 77.469052 155.704442 
L 77.571843 155.654689 
L 77.674634 154.908391 
L 77.726029 154.908391 
L 77.82882 154.361106 
L 78.034402 154.311352 
L 78.034402 154.162093 
L 78.39417 154.062586 
L 78.49696 153.017769 
L 78.548356 153.017769 
L 78.651147 152.420731 
L 78.753938 152.321224 
L 78.805333 152.122211 
L 78.959519 152.072458 
L 79.06231 151.525173 
L 79.113705 151.525173 
L 79.216496 150.331096 
L 79.319287 150.231589 
L 79.422078 150.032577 
L 79.576264 149.982823 
L 79.679055 149.435538 
L 79.936032 149.385785 
L 80.038823 148.987759 
L 80.141614 148.938006 
L 80.193009 148.191708 
L 80.2958 148.191708 
L 80.398591 147.395656 
L 80.604172 147.29615 
L 80.655568 147.097137 
L 81.015336 146.997631 
L 81.015336 146.947878 
L 81.169522 146.947878 
L 81.220917 146.599605 
L 81.323708 146.599605 
L 81.323708 146.301086 
L 81.52929 146.251333 
L 81.580685 145.853307 
L 81.734872 145.753801 
L 81.837662 145.256269 
L 81.889058 145.256269 
L 81.991849 144.65923 
L 82.043244 144.65923 
L 82.146035 143.813425 
L 82.248826 143.763672 
L 82.351616 142.967621 
L 82.403012 142.967621 
L 82.505803 142.072063 
L 82.608594 142.02231 
L 82.711384 141.823297 
L 82.916966 141.723791 
L 83.019757 141.425271 
L 83.173943 141.325765 
L 83.276734 141.027246 
L 83.533711 140.927739 
L 83.585106 140.579467 
L 83.893479 140.479961 
L 83.99627 140.330701 
L 84.099061 140.330701 
L 84.201851 140.032182 
L 84.304642 139.932675 
L 84.407433 139.584403 
L 84.458828 139.584403 
L 84.561619 139.086871 
L 84.613015 139.086871 
L 84.613015 138.887858 
L 84.869992 138.788351 
L 84.972783 138.440079 
L 85.075573 138.440079 
L 85.126969 138.14156 
L 85.22976 138.14156 
L 85.281155 137.743534 
L 85.486737 137.644028 
L 85.589527 136.997236 
L 85.640923 136.997236 
L 85.692318 135.803159 
L 86.000691 135.753406 
L 86.103482 135.35538 
L 86.154877 135.35538 
L 86.154877 135.156367 
L 86.514645 135.056861 
L 86.617436 134.808095 
L 86.720227 134.758342 
L 86.823017 134.211056 
L 86.925808 134.211056 
L 87.028599 133.564265 
L 87.234181 133.464758 
L 87.336972 132.817966 
L 87.542553 132.768213 
L 87.645344 132.370188 
L 87.696739 132.370188 
L 87.696739 131.723396 
L 87.850926 131.723396 
L 87.953716 131.424877 
L 88.056507 131.424877 
L 88.107903 131.076604 
L 88.313484 131.076604 
L 88.36488 130.827838 
L 88.467671 130.827838 
L 88.570461 130.529319 
L 88.724648 130.429812 
L 88.724648 130.280553 
L 88.878834 130.280553 
L 88.981625 129.982034 
L 89.03302 129.982034 
L 89.084416 129.733268 
L 89.187206 129.733268 
L 89.238602 129.534255 
L 89.649765 129.434748 
L 89.752556 129.285489 
L 89.958138 129.185982 
L 90.009533 128.787957 
L 90.215115 128.68845 
L 90.26651 128.439684 
L 90.420696 128.439684 
L 90.523487 127.892399 
L 90.626278 127.892399 
L 90.729069 127.394867 
L 90.883255 127.29536 
L 90.986046 127.046594 
L 91.037441 127.046594 
L 91.088837 126.549062 
L 91.243023 126.549062 
L 91.294418 126.300296 
L 91.448605 126.300296 
L 91.551395 125.90227 
L 91.654186 125.90227 
L 91.705582 125.504245 
L 91.911163 125.404738 
L 91.962559 125.205726 
L 92.16814 125.106219 
L 92.270931 124.8077 
L 92.425117 124.708193 
L 92.527908 124.558934 
L 92.73349 124.459427 
L 92.836281 124.260415 
L 92.990467 124.160908 
L 92.990467 123.961895 
L 93.350235 123.862389 
L 93.350235 123.812636 
L 93.812794 123.713129 
L 93.915584 123.116091 
L 94.069771 123.066338 
L 94.172561 122.867325 
L 94.275352 122.767818 
L 94.326748 122.320039 
L 94.480934 122.320039 
L 94.583725 121.374729 
L 94.686516 121.324975 
L 94.789306 121.026456 
L 94.943493 120.976703 
L 95.046284 120.62843 
L 95.149074 120.578677 
L 95.20047 120.280158 
L 95.406051 120.180652 
L 95.508842 119.583613 
L 95.714424 119.53386 
L 95.817215 119.135834 
L 95.86861 119.135834 
L 95.971401 118.837315 
L 96.074192 118.737808 
L 96.176983 118.489042 
L 96.228378 118.489042 
L 96.331169 117.892004 
L 96.793728 117.792498 
L 96.896518 117.543731 
L 96.947914 117.543731 
L 97.050705 117.095953 
L 97.513263 116.996446 
L 97.616054 116.648174 
L 97.66745 116.648174 
L 97.718845 116.349654 
L 97.821636 116.349654 
L 97.924427 115.802369 
L 98.027217 115.702863 
L 98.027217 115.454097 
L 98.386985 115.35459 
L 98.386985 115.304837 
L 98.541172 115.304837 
L 98.643962 114.757552 
L 99.00373 114.707799 
L 99.106521 114.558539 
L 99.312103 114.508786 
L 99.363498 114.26002 
L 99.466289 114.26002 
L 99.56908 113.861994 
L 99.620475 113.861994 
L 99.723266 113.513722 
L 99.980243 113.513722 
L 100.083034 113.264956 
L 100.391406 113.165449 
L 100.494197 113.01619 
L 100.596988 113.01619 
L 100.699779 112.618164 
L 101.110942 112.518657 
L 101.110942 112.319645 
L 101.316524 112.220138 
L 101.367919 111.921619 
L 101.676292 111.822113 
L 101.779083 111.672853 
L 101.984664 111.573346 
L 102.087455 111.225074 
L 102.395828 111.125568 
L 102.498618 110.876802 
L 102.652805 110.876802 
L 102.7042 110.379269 
L 102.961177 110.279763 
L 103.063968 110.08075 
L 103.115363 110.08075 
L 103.115363 109.931491 
L 103.320945 109.881737 
L 103.320945 109.583218 
L 103.732108 109.483712 
L 103.732108 109.433959 
L 104.040481 109.384205 
L 104.143272 108.98618 
L 104.194667 108.98618 
L 104.297458 108.68766 
L 104.451644 108.637907 
L 104.554435 108.040869 
L 104.811412 107.991115 
L 104.914203 107.692596 
L 105.119784 107.59309 
L 105.222575 107.195064 
L 105.530948 107.095558 
L 105.633739 106.548272 
L 105.83932 106.448766 
L 105.942111 106.05074 
L 106.147693 106.000987 
L 106.147693 105.702468 
L 106.40467 105.602962 
L 106.456065 105.354195 
L 106.713042 105.254689 
L 106.815833 104.95617 
L 107.021415 104.856663 
L 107.021415 104.80691 
L 107.175601 104.80691 
L 107.175601 104.408885 
L 107.535369 104.309378 
L 107.63816 104.060612 
L 107.689555 104.060612 
L 107.689555 103.911352 
L 108.049323 103.811846 
L 108.100718 103.71234 
L 108.357695 103.612833 
L 108.409091 103.364067 
L 108.666068 103.264561 
L 108.768859 102.966041 
L 108.923045 102.916288 
L 108.97444 102.568016 
L 109.180022 102.568016 
L 109.282813 102.16999 
L 109.385604 102.16999 
L 109.488395 101.871471 
L 109.53979 101.871471 
L 109.642581 101.622705 
L 109.950953 101.523198 
L 109.950953 101.473445 
L 110.259326 101.423692 
L 110.362117 101.174926 
L 110.670489 101.07542 
L 110.77328 100.92616 
L 110.978862 100.826654 
L 111.030257 100.677394 
L 111.235839 100.627641 
L 111.235839 100.329121 
L 111.492816 100.229615 
L 111.595607 100.080355 
L 112.00677 99.980849 
L 112.00677 99.68233 
L 112.212351 99.68233 
L 112.263747 99.483317 
L 112.469329 99.38381 
L 112.520724 98.786772 
L 112.623515 98.786772 
L 112.726306 98.538006 
L 112.880492 98.4385 
L 112.880492 98.28924 
L 113.034678 98.28924 
L 113.137469 97.891214 
L 113.188864 97.891214 
L 113.24026 97.642448 
L 113.343051 97.642448 
L 113.343051 97.493189 
L 113.651423 97.393682 
L 113.651423 97.244423 
L 114.062586 97.194669 
L 114.165377 96.846397 
L 114.268168 96.846397 
L 114.370959 96.498124 
L 114.525145 96.398618 
L 114.627936 96.149852 
L 114.987704 96.050346 
L 115.090495 95.851333 
L 115.14189 95.851333 
L 115.244681 95.50306 
L 115.450263 95.403554 
L 115.501658 95.304047 
L 115.70724 95.204541 
L 115.70724 95.105035 
L 116.067007 95.055281 
L 116.169798 94.707009 
L 116.632357 94.657256 
L 116.735148 94.458243 
L 116.837939 94.458243 
L 116.837939 94.308983 
L 117.300497 94.209477 
L 117.403288 93.910958 
L 117.763056 93.861204 
L 117.814452 93.662192 
L 118.122824 93.562685 
L 118.225615 93.264166 
L 118.27701 93.264166 
L 118.328406 92.86614 
L 118.585383 92.766634 
L 118.585383 92.667127 
L 118.893755 92.567621 
L 118.996546 92.318855 
L 119.150732 92.269102 
L 119.202128 92.119842 
L 119.304918 92.119842 
L 119.407709 91.572557 
L 119.716082 91.47305 
L 119.716082 91.423297 
L 120.024454 91.323791 
L 120.127245 91.174531 
L 120.281431 91.174531 
L 120.384222 90.925765 
L 120.74399 90.826259 
L 120.74399 90.776505 
L 121.155153 90.676999 
L 121.257944 90.577493 
L 121.926085 90.477986 
L 121.97748 90.328727 
L 122.440039 90.22922 
L 122.491434 89.980454 
L 122.64562 89.980454 
L 122.64562 89.831194 
L 122.851202 89.731688 
L 122.851202 89.681935 
L 123.365156 89.582428 
L 123.416552 89.482922 
L 123.981901 89.383416 
L 124.033296 89.234156 
L 124.393064 89.13465 
L 124.44446 89.035143 
L 124.804228 88.98539 
L 124.855623 88.736624 
L 125.318182 88.637117 
L 125.420973 88.487858 
L 125.575159 88.438105 
L 125.626554 88.288845 
L 125.883531 88.288845 
L 125.986322 88.040079 
L 126.089113 87.940573 
L 126.089113 87.841066 
L 126.243299 87.841066 
L 126.34609 87.5923 
L 126.808649 87.492794 
L 126.91144 87.393287 
L 127.219812 87.293781 
L 127.271208 87.045015 
L 127.990743 86.945508 
L 127.990743 86.895755 
L 128.453302 86.796249 
L 128.453302 86.696742 
L 128.81307 86.597236 
L 128.81307 86.447976 
L 129.224233 86.34847 
L 129.327024 86.099704 
L 129.892374 86.000197 
L 129.995164 85.850938 
L 130.560514 85.801185 
L 130.560514 85.651925 
L 130.920282 85.552419 
L 131.023073 85.403159 
L 131.382841 85.303653 
L 131.434236 85.204146 
L 131.537027 85.204146 
L 131.639818 85.005133 
L 132.153772 84.905627 
L 132.153772 84.855874 
L 132.564935 84.756367 
L 132.564935 84.706614 
L 133.027494 84.656861 
L 133.130285 84.457848 
L 133.335866 84.358342 
L 133.438657 84.109576 
L 134.209588 84.010069 
L 134.260984 83.761303 
L 134.569356 83.661797 
L 134.569356 83.413031 
L 135.134706 83.313524 
L 135.186101 83.164265 
L 135.802846 83.114511 
L 135.802846 83.015005 
L 136.111219 83.015005 
L 136.111219 82.865745 
L 136.522382 82.766239 
L 136.522382 82.716486 
L 136.727964 82.666732 
L 136.830754 82.517473 
L 137.190522 82.417966 
L 137.190522 82.368213 
L 137.704476 82.268707 
L 137.704476 82.218954 
L 138.012849 82.218954 
L 138.11564 81.970188 
L 138.475408 81.920434 
L 138.578198 81.721422 
L 139.092153 81.621915 
L 139.143548 81.422902 
L 139.863084 81.323396 
L 139.914479 81.223889 
L 140.222852 81.174136 
L 140.222852 81.07463 
L 140.634015 80.975123 
L 140.634015 80.92537 
L 140.839597 80.875617 
L 140.942387 80.726357 
L 141.661923 80.626851 
L 141.661923 80.577098 
L 141.970296 80.527345 
L 142.021691 80.328332 
L 142.638436 80.228825 
L 142.638436 80.029812 
L 143.203786 79.930306 
L 143.306576 79.731293 
L 143.769135 79.631787 
L 143.820531 79.432774 
L 144.026112 79.383021 
L 144.128903 79.184008 
L 144.334485 79.084501 
L 144.334485 79.034748 
L 144.694253 78.935242 
L 144.797043 78.835735 
L 144.95123 78.736229 
L 145.05402 78.586969 
L 145.465184 78.537216 
L 145.465184 78.28845 
L 146.390301 78.188944 
L 146.493092 78.039684 
L 146.85286 77.940178 
L 146.85286 77.840671 
L 147.007046 77.840671 
L 147.007046 77.591905 
L 148.08635 77.492399 
L 148.08635 77.442646 
L 148.343327 77.343139 
L 148.446118 77.094373 
L 148.497513 77.094373 
L 148.600304 76.89536 
L 149.268444 76.795854 
L 149.371235 76.646594 
L 150.193562 76.547088 
L 150.244957 76.447581 
L 150.707516 76.348075 
L 150.707516 76.298322 
L 151.272865 76.198815 
L 151.375656 76.099309 
L 151.632633 75.999803 
L 151.632633 75.950049 
L 152.095192 75.850543 
L 152.146587 75.701283 
L 152.300774 75.701283 
L 152.403565 75.452517 
L 152.968914 75.353011 
L 152.968914 75.303258 
L 153.534264 75.203751 
L 153.534264 75.153998 
L 153.996822 75.054492 
L 153.996822 75.004738 
L 154.510776 74.905232 
L 154.613567 74.805726 
L 155.178917 74.706219 
L 155.281708 74.4077 
L 155.487289 74.357947 
L 155.487289 74.25844 
L 155.847057 74.158934 
L 155.898453 74.059427 
L 156.412407 73.959921 
L 156.412407 73.910168 
L 156.772175 73.860415 
L 156.874965 73.561895 
L 157.697292 73.462389 
L 157.800083 73.313129 
L 158.365432 73.213623 
L 158.365432 73.16387 
L 158.776596 73.064363 
L 158.879387 72.964857 
L 159.239154 72.86535 
L 159.341945 72.716091 
L 159.650318 72.616584 
L 159.753109 72.417572 
L 160.164272 72.318065 
L 160.215667 72.069299 
L 160.369854 72.069299 
L 160.369854 71.870286 
L 161.037994 71.77078 
L 161.037994 71.721027 
L 161.500553 71.62152 
L 161.500553 71.571767 
L 161.75753 71.571767 
L 161.860321 71.273248 
L 162.939624 71.173741 
L 162.939624 71.123988 
L 163.967532 71.024482 
L 164.018928 70.924975 
L 164.532882 70.875222 
L 164.532882 70.775716 
L 165.303813 70.676209 
L 165.303813 70.626456 
L 166.023349 70.576703 
L 166.12614 70.37769 
L 166.845676 70.278184 
L 166.845676 70.22843 
L 167.565211 70.128924 
L 167.565211 70.079171 
L 167.924979 70.029418 
L 167.924979 69.929911 
L 168.952888 69.830405 
L 169.004283 69.730898 
L 169.9294 69.631392 
L 169.9294 69.531885 
L 170.546145 69.432379 
L 170.546145 69.382626 
L 171.676844 69.332873 
L 171.72824 69.034353 
L 172.550566 68.934847 
L 172.550566 68.835341 
L 173.218707 68.785587 
L 173.321498 68.636328 
L 174.298011 68.536821 
L 174.349406 68.437315 
L 174.657778 68.337808 
L 174.657778 68.288055 
L 174.914755 68.238302 
L 174.914755 68.089042 
L 175.377314 67.989536 
L 175.480105 67.840276 
L 176.251036 67.74077 
L 176.302432 67.59151 
L 176.970572 67.492004 
L 176.970572 67.442251 
L 178.049876 67.342744 
L 178.101271 67.193485 
L 178.409644 67.143731 
L 178.409644 66.994472 
L 179.951506 66.894965 
L 179.951506 66.845212 
L 180.46546 66.745706 
L 180.46546 66.646199 
L 181.287787 66.546693 
L 181.287787 66.49694 
L 182.778254 66.397433 
L 182.778254 66.34768 
L 183.703371 66.248174 
L 183.703371 66.148667 
L 185.039652 66.049161 
L 185.142443 65.949654 
L 186.273142 65.850148 
L 186.375933 65.750642 
L 187.146864 65.651135 
L 187.146864 65.601382 
L 187.763609 65.501876 
L 187.763609 65.452122 
L 189.099889 65.352616 
L 189.099889 65.302863 
L 189.613844 65.25311 
L 189.613844 65.10385 
L 190.333379 65.004344 
L 190.333379 64.95459 
L 190.744543 64.904837 
L 190.744543 64.805331 
L 193.160127 64.705824 
L 193.160127 64.656071 
L 194.085245 64.556565 
L 194.085245 64.506811 
L 194.547803 64.407305 
L 194.547803 64.357552 
L 195.678502 64.307799 
L 195.678502 64.208292 
L 196.500829 64.108786 
L 196.60362 63.959526 
L 197.323156 63.909773 
L 197.425946 63.661007 
L 197.991296 63.5615 
L 198.094087 63.461994 
L 199.378972 63.362488 
L 199.378972 63.312734 
L 200.458276 63.213228 
L 200.458276 63.163475 
L 202.719674 63.063968 
L 202.719674 63.014215 
L 204.055955 62.964462 
L 204.10735 62.815202 
L 204.415723 62.715696 
L 204.518513 62.566436 
L 205.700608 62.46693 
L 205.803399 62.367423 
L 206.882702 62.267917 
L 206.882702 62.168411 
L 207.962006 62.068904 
L 207.962006 61.969398 
L 208.784333 61.869891 
L 208.835728 61.770385 
L 209.658055 61.670879 
L 209.658055 61.621125 
L 210.120613 61.521619 
L 210.120613 61.471866 
L 212.227825 61.372359 
L 212.227825 61.322606 
L 212.84457 61.2231 
L 212.895966 61.07384 
L 213.975269 60.974334 
L 213.975269 60.92458 
L 215.414341 60.825074 
L 215.414341 60.775321 
L 218.34388 60.675814 
L 218.34388 60.626061 
L 219.937137 60.526555 
L 219.937137 60.476802 
L 221.479 60.377295 
L 221.581791 60.228036 
L 222.969467 60.178282 
L 222.969467 60.078776 
L 224.04877 59.979269 
L 224.04877 59.929516 
L 224.665515 59.83001 
L 224.665515 59.780257 
L 225.230865 59.68075 
L 225.230865 59.630997 
L 225.796214 59.531491 
L 225.899005 59.431984 
L 226.053191 59.382231 
L 226.053191 59.282725 
L 226.824123 59.183218 
L 226.824123 59.133465 
L 229.034125 59.033959 
L 229.034125 58.984205 
L 230.164825 58.884699 
L 230.164825 58.785192 
L 231.038547 58.685686 
L 231.038547 58.635933 
L 231.192733 58.635933 
L 231.192733 58.486673 
L 232.837386 58.387167 
L 232.837386 58.337414 
L 233.762503 58.237907 
L 233.762503 58.188154 
L 235.921111 58.088648 
L 235.921111 58.038894 
L 236.846228 57.939388 
L 236.846228 57.889635 
L 239.056231 57.790128 
L 239.056231 57.740375 
L 243.32205 57.640869 
L 243.32205 57.591115 
L 249.540895 57.491609 
L 249.643686 57.392103 
L 251.596712 57.292596 
L 251.596712 57.242843 
L 252.830202 57.19309 
L 252.830202 57.093583 
L 254.834623 56.994077 
L 254.834623 56.944324 
L 258.89486 56.844817 
L 258.89486 56.795064 
L 264.291379 56.695558 
L 264.291379 56.645805 
L 271.538132 56.546298 
L 271.538132 56.496545 
L 276.574883 56.397038 
L 276.574883 56.347285 
L 280.480934 56.247779 
L 280.480934 56.198026 
L 297.801188 56.098519 
L 297.852584 55.999013 
L 301.039099 55.899506 
L 301.039099 55.849753 
L 311.318182 55.8 
L 311.318182 55.8 
" clip-path="url(#pc9f8399a2c)" style="fill: none; stroke: #1f77b4; stroke-width: 1.5; stroke-linecap: square"/>
   </g>
   <g id="line2d_14">
    <path d="M 57.681818 307.8 
L 311.318182 55.8 
" clip-path="url(#pc9f8399a2c)" style="fill: none; stroke-dasharray: 5.55,2.4; stroke-dashoffset: 0; stroke: #ff0000; stroke-width: 1.5"/>
   </g>
   <g id="patch_3">
    <path d="M 45 320.4 
L 45 43.2 
" style="fill: none; stroke: #000000; stroke-width: 0.8; stroke-linejoin: miter; stroke-linecap: square"/>
   </g>
   <g id="patch_4">
    <path d="M 324 320.4 
L 324 43.2 
" style="fill: none; stroke: #000000; stroke-width: 0.8; stroke-linejoin: miter; stroke-linecap: square"/>
   </g>
   <g id="patch_5">
    <path d="M 45 320.4 
L 324 320.4 
" style="fill: none; stroke: #000000; stroke-width: 0.8; stroke-linejoin: miter; stroke-linecap: square"/>
   </g>
   <g id="patch_6">
    <path d="M 45 43.2 
L 324 43.2 
" style="fill: none; stroke: #000000; stroke-width: 0.8; stroke-linejoin: miter; stroke-linecap: square"/>
   </g>
   <g id="text_15">
    <!-- ROC_8192_1024_2000 -->
    <g transform="translate(116.608125 37.2)scale(0.12 -0.12)">
     <defs>
      <path id="DejaVuSans-4f" d="M 2522 4238 
Q 1834 4238 1429 3725 
Q 1025 3213 1025 2328 
Q 1025 1447 1429 934 
Q 1834 422 2522 422 
Q 3209 422 3611 934 
Q 4013 1447 4013 2328 
Q 4013 3213 3611 3725 
Q 3209 4238 2522 4238 
z
M 2522 4750 
Q 3503 4750 4090 4092 
Q 4678 3434 4678 2328 
Q 4678 1225 4090 567 
Q 3503 -91 2522 -91 
Q 1538 -91 948 565 
Q 359 1222 359 2328 
Q 359 3434 948 4092 
Q 1538 4750 2522 4750 
z
" transform="scale(0.015625)"/>
      <path id="DejaVuSans-43" d="M 4122 4306 
L 4122 3641 
Q 3803 3938 3442 4084 
Q 3081 4231 2675 4231 
Q 1875 4231 1450 3742 
Q 1025 3253 1025 2328 
Q 1025 1406 1450 917 
Q 1875 428 2675 428 
Q 3081 428 3442 575 
Q 3803 722 4122 1019 
L 4122 359 
Q 3791 134 3420 21 
Q 3050 -91 2638 -91 
Q 1578 -91 968 557 
Q 359 1206 359 2328 
Q 359 3453 968 4101 
Q 1578 4750 2638 4750 
Q 3056 4750 3426 4639 
Q 3797 4528 4122 4306 
z
" transform="scale(0.015625)"/>
      <path id="DejaVuSans-5f" d="M 3263 -1063 
L 3263 -1509 
L -63 -1509 
L -63 -1063 
L 3263 -1063 
z
" transform="scale(0.015625)"/>
      <path id="DejaVuSans-39" d="M 703 97 
L 703 672 
Q 941 559 1184 500 
Q 1428 441 1663 441 
Q 2288 441 2617 861 
Q 2947 1281 2994 2138 
Q 2813 1869 2534 1725 
Q 2256 1581 1919 1581 
Q 1219 1581 811 2004 
Q 403 2428 403 3163 
Q 403 3881 828 4315 
Q 1253 4750 1959 4750 
Q 2769 4750 3195 4129 
Q 3622 3509 3622 2328 
Q 3622 1225 3098 567 
Q 2575 -91 1691 -91 
Q 1453 -91 1209 -44 
Q 966 3 703 97 
z
M 1959 2075 
Q 2384 2075 2632 2365 
Q 2881 2656 2881 3163 
Q 2881 3666 2632 3958 
Q 2384 4250 1959 4250 
Q 1534 4250 1286 3958 
Q 1038 3666 1038 3163 
Q 1038 2656 1286 2365 
Q 1534 2075 1959 2075 
z
" transform="scale(0.015625)"/>
     </defs>
     <use xlink:href="#DejaVuSans-52"/>
     <use xlink:href="#DejaVuSans-4f" x="69.482422"/>
     <use xlink:href="#DejaVuSans-43" x="148.193359"/>
     <use xlink:href="#DejaVuSans-5f" x="218.017578"/>
     <use xlink:href="#DejaVuSans-38" x="268.017578"/>
     <use xlink:href="#DejaVuSans-31" x="331.640625"/>
     <use xlink:href="#DejaVuSans-39" x="395.263672"/>
     <use xlink:href="#DejaVuSans-32" x="458.886719"/>
     <use xlink:href="#DejaVuSans-5f" x="522.509766"/>
     <use xlink:href="#DejaVuSans-31" x="572.509766"/>
     <use xlink:href="#DejaVuSans-30" x="636.132812"/>
     <use xlink:href="#DejaVuSans-32" x="699.755859"/>
     <use xlink:href="#DejaVuSans-34" x="763.378906"/>
     <use xlink:href="#DejaVuSans-5f" x="827.001953"/>
     <use xlink:href="#DejaVuSans-32" x="877.001953"/>
     <use xlink:href="#DejaVuSans-30" x="940.625"/>
     <use xlink:href="#DejaVuSans-30" x="1004.248047"/>
     <use xlink:href="#DejaVuSans-30" x="1067.871094"/>
    </g>
   </g>
   <g id="legend_1">
    <g id="patch_7">
     <path d="M 214.13125 315.4 
L 317 315.4 
Q 319 315.4 319 313.4 
L 319 299.721875 
Q 319 297.721875 317 297.721875 
L 214.13125 297.721875 
Q 212.13125 297.721875 212.13125 299.721875 
L 212.13125 313.4 
Q 212.13125 315.4 214.13125 315.4 
z
" style="fill: #ffffff; opacity: 0.8; stroke: #cccccc; stroke-linejoin: miter"/>
    </g>
    <g id="line2d_15">
     <path d="M 216.13125 305.820312 
L 226.13125 305.820312 
L 236.13125 305.820312 
" style="fill: none; stroke: #1f77b4; stroke-width: 1.5; stroke-linecap: square"/>
    </g>
    <g id="text_16">
     <!-- AUC = 0.8855 -->
     <g transform="translate(244.13125 309.320312)scale(0.1 -0.1)">
      <defs>
       <path id="DejaVuSans-41" d="M 2188 4044 
L 1331 1722 
L 3047 1722 
L 2188 4044 
z
M 1831 4666 
L 2547 4666 
L 4325 0 
L 3669 0 
L 3244 1197 
L 1141 1197 
L 716 0 
L 50 0 
L 1831 4666 
z
" transform="scale(0.015625)"/>
       <path id="DejaVuSans-55" d="M 556 4666 
L 1191 4666 
L 1191 1831 
Q 1191 1081 1462 751 
Q 1734 422 2344 422 
Q 2950 422 3222 751 
Q 3494 1081 3494 1831 
L 3494 4666 
L 4128 4666 
L 4128 1753 
Q 4128 841 3676 375 
Q 3225 -91 2344 -91 
Q 1459 -91 1007 375 
Q 556 841 556 1753 
L 556 4666 
z
" transform="scale(0.015625)"/>
       <path id="DejaVuSans-3d" d="M 678 2906 
L 4684 2906 
L 4684 2381 
L 678 2381 
L 678 2906 
z
M 678 1631 
L 4684 1631 
L 4684 1100 
L 678 1100 
L 678 1631 
z
" transform="scale(0.015625)"/>
       <path id="DejaVuSans-35" d="M 691 4666 
L 3169 4666 
L 3169 4134 
L 1269 4134 
L 1269 2991 
Q 1406 3038 1543 3061 
Q 1681 3084 1819 3084 
Q 2600 3084 3056 2656 
Q 3513 2228 3513 1497 
Q 3513 744 3044 326 
Q 2575 -91 1722 -91 
Q 1428 -91 1123 -41 
Q 819 9 494 109 
L 494 744 
Q 775 591 1075 516 
Q 1375 441 1709 441 
Q 2250 441 2565 725 
Q 2881 1009 2881 1497 
Q 2881 1984 2565 2268 
Q 2250 2553 1709 2553 
Q 1456 2553 1204 2497 
Q 953 2441 691 2322 
L 691 4666 
z
" transform="scale(0.015625)"/>
      </defs>
      <use xlink:href="#DejaVuSans-41"/>
      <use xlink:href="#DejaVuSans-55" x="68.408203"/>
      <use xlink:href="#DejaVuSans-43" x="141.601562"/>
      <use xlink:href="#DejaVuSans-20" x="211.425781"/>
      <use xlink:href="#DejaVuSans-3d" x="243.212891"/>
      <use xlink:href="#DejaVuSans-20" x="327.001953"/>
      <use xlink:href="#DejaVuSans-30" x="358.789062"/>
      <use xlink:href="#DejaVuSans-2e" x="422.412109"/>
      <use xlink:href="#DejaVuSans-38" x="454.199219"/>
      <use xlink:href="#DejaVuSans-38" x="517.822266"/>
      <use xlink:href="#DejaVuSans-35" x="581.445312"/>
      <use xlink:href="#DejaVuSans-35" x="645.068359"/>
     </g>
    </g>
   </g>
  </g>
 </g>
 <defs>
  <clipPath id="pc9f8399a2c">
   <rect x="45" y="43.2" width="279" height="277.2"/>
  </clipPath>
 </defs>
</svg>
