<?xml version="1.0" encoding="utf-8" standalone="no"?>
<!DOCTYPE svg PUBLIC "-//W3C//DTD SVG 1.1//EN"
  "http://www.w3.org/Graphics/SVG/1.1/DTD/svg11.dtd">
<svg xmlns:xlink="http://www.w3.org/1999/xlink" width="360pt" height="360pt" viewBox="0 0 360 360" xmlns="http://www.w3.org/2000/svg" version="1.1">
 <metadata>
  <rdf:RDF xmlns:dc="http://purl.org/dc/elements/1.1/" xmlns:cc="http://creativecommons.org/ns#" xmlns:rdf="http://www.w3.org/1999/02/22-rdf-syntax-ns#">
   <cc:Work>
    <dc:type rdf:resource="http://purl.org/dc/dcmitype/StillImage"/>
    <dc:date>2022-12-15T14:10:11.387184</dc:date>
    <dc:format>image/svg+xml</dc:format>
    <dc:creator>
     <cc:Agent>
      <dc:title>Matplotlib v3.5.1, https://matplotlib.org/</dc:title>
     </cc:Agent>
    </dc:creator>
   </cc:Work>
  </rdf:RDF>
 </metadata>
 <defs>
  <style type="text/css">*{stroke-linejoin: round; stroke-linecap: butt}</style>
 </defs>
 <g id="figure_1">
  <g id="patch_1">
   <path d="M 0 360 
L 360 360 
L 360 0 
L 0 0 
z
" style="fill: #ffffff"/>
  </g>
  <g id="axes_1">
   <g id="patch_2">
    <path d="M 45 320.4 
L 324 320.4 
L 324 43.2 
L 45 43.2 
z
" style="fill: #ffffff"/>
   </g>
   <g id="matplotlib.axis_1">
    <g id="xtick_1">
     <g id="line2d_1">
      <defs>
       <path id="m31eaf5d019" d="M 0 0 
L 0 3.5 
" style="stroke: #000000; stroke-width: 0.8"/>
      </defs>
      <g>
       <use xlink:href="#m31eaf5d019" x="57.681818" y="320.4" style="stroke: #000000; stroke-width: 0.8"/>
      </g>
     </g>
     <g id="text_1">
      <!-- 0.0 -->
      <g transform="translate(49.730256 334.998438)scale(0.1 -0.1)">
       <defs>
        <path id="DejaVuSans-30" d="M 2034 4250 
Q 1547 4250 1301 3770 
Q 1056 3291 1056 2328 
Q 1056 1369 1301 889 
Q 1547 409 2034 409 
Q 2525 409 2770 889 
Q 3016 1369 3016 2328 
Q 3016 3291 2770 3770 
Q 2525 4250 2034 4250 
z
M 2034 4750 
Q 2819 4750 3233 4129 
Q 3647 3509 3647 2328 
Q 3647 1150 3233 529 
Q 2819 -91 2034 -91 
Q 1250 -91 836 529 
Q 422 1150 422 2328 
Q 422 3509 836 4129 
Q 1250 4750 2034 4750 
z
" transform="scale(0.015625)"/>
        <path id="DejaVuSans-2e" d="M 684 794 
L 1344 794 
L 1344 0 
L 684 0 
L 684 794 
z
" transform="scale(0.015625)"/>
       </defs>
       <use xlink:href="#DejaVuSans-30"/>
       <use xlink:href="#DejaVuSans-2e" x="63.623047"/>
       <use xlink:href="#DejaVuSans-30" x="95.410156"/>
      </g>
     </g>
    </g>
    <g id="xtick_2">
     <g id="line2d_2">
      <g>
       <use xlink:href="#m31eaf5d019" x="108.409091" y="320.4" style="stroke: #000000; stroke-width: 0.8"/>
      </g>
     </g>
     <g id="text_2">
      <!-- 0.2 -->
      <g transform="translate(100.457528 334.998438)scale(0.1 -0.1)">
       <defs>
        <path id="DejaVuSans-32" d="M 1228 531 
L 3431 531 
L 3431 0 
L 469 0 
L 469 531 
Q 828 903 1448 1529 
Q 2069 2156 2228 2338 
Q 2531 2678 2651 2914 
Q 2772 3150 2772 3378 
Q 2772 3750 2511 3984 
Q 2250 4219 1831 4219 
Q 1534 4219 1204 4116 
Q 875 4013 500 3803 
L 500 4441 
Q 881 4594 1212 4672 
Q 1544 4750 1819 4750 
Q 2544 4750 2975 4387 
Q 3406 4025 3406 3419 
Q 3406 3131 3298 2873 
Q 3191 2616 2906 2266 
Q 2828 2175 2409 1742 
Q 1991 1309 1228 531 
z
" transform="scale(0.015625)"/>
       </defs>
       <use xlink:href="#DejaVuSans-30"/>
       <use xlink:href="#DejaVuSans-2e" x="63.623047"/>
       <use xlink:href="#DejaVuSans-32" x="95.410156"/>
      </g>
     </g>
    </g>
    <g id="xtick_3">
     <g id="line2d_3">
      <g>
       <use xlink:href="#m31eaf5d019" x="159.136364" y="320.4" style="stroke: #000000; stroke-width: 0.8"/>
      </g>
     </g>
     <g id="text_3">
      <!-- 0.4 -->
      <g transform="translate(151.184801 334.998438)scale(0.1 -0.1)">
       <defs>
        <path id="DejaVuSans-34" d="M 2419 4116 
L 825 1625 
L 2419 1625 
L 2419 4116 
z
M 2253 4666 
L 3047 4666 
L 3047 1625 
L 3713 1625 
L 3713 1100 
L 3047 1100 
L 3047 0 
L 2419 0 
L 2419 1100 
L 313 1100 
L 313 1709 
L 2253 4666 
z
" transform="scale(0.015625)"/>
       </defs>
       <use xlink:href="#DejaVuSans-30"/>
       <use xlink:href="#DejaVuSans-2e" x="63.623047"/>
       <use xlink:href="#DejaVuSans-34" x="95.410156"/>
      </g>
     </g>
    </g>
    <g id="xtick_4">
     <g id="line2d_4">
      <g>
       <use xlink:href="#m31eaf5d019" x="209.863636" y="320.4" style="stroke: #000000; stroke-width: 0.8"/>
      </g>
     </g>
     <g id="text_4">
      <!-- 0.6 -->
      <g transform="translate(201.912074 334.998438)scale(0.1 -0.1)">
       <defs>
        <path id="DejaVuSans-36" d="M 2113 2584 
Q 1688 2584 1439 2293 
Q 1191 2003 1191 1497 
Q 1191 994 1439 701 
Q 1688 409 2113 409 
Q 2538 409 2786 701 
Q 3034 994 3034 1497 
Q 3034 2003 2786 2293 
Q 2538 2584 2113 2584 
z
M 3366 4563 
L 3366 3988 
Q 3128 4100 2886 4159 
Q 2644 4219 2406 4219 
Q 1781 4219 1451 3797 
Q 1122 3375 1075 2522 
Q 1259 2794 1537 2939 
Q 1816 3084 2150 3084 
Q 2853 3084 3261 2657 
Q 3669 2231 3669 1497 
Q 3669 778 3244 343 
Q 2819 -91 2113 -91 
Q 1303 -91 875 529 
Q 447 1150 447 2328 
Q 447 3434 972 4092 
Q 1497 4750 2381 4750 
Q 2619 4750 2861 4703 
Q 3103 4656 3366 4563 
z
" transform="scale(0.015625)"/>
       </defs>
       <use xlink:href="#DejaVuSans-30"/>
       <use xlink:href="#DejaVuSans-2e" x="63.623047"/>
       <use xlink:href="#DejaVuSans-36" x="95.410156"/>
      </g>
     </g>
    </g>
    <g id="xtick_5">
     <g id="line2d_5">
      <g>
       <use xlink:href="#m31eaf5d019" x="260.590909" y="320.4" style="stroke: #000000; stroke-width: 0.8"/>
      </g>
     </g>
     <g id="text_5">
      <!-- 0.8 -->
      <g transform="translate(252.639347 334.998438)scale(0.1 -0.1)">
       <defs>
        <path id="DejaVuSans-38" d="M 2034 2216 
Q 1584 2216 1326 1975 
Q 1069 1734 1069 1313 
Q 1069 891 1326 650 
Q 1584 409 2034 409 
Q 2484 409 2743 651 
Q 3003 894 3003 1313 
Q 3003 1734 2745 1975 
Q 2488 2216 2034 2216 
z
M 1403 2484 
Q 997 2584 770 2862 
Q 544 3141 544 3541 
Q 544 4100 942 4425 
Q 1341 4750 2034 4750 
Q 2731 4750 3128 4425 
Q 3525 4100 3525 3541 
Q 3525 3141 3298 2862 
Q 3072 2584 2669 2484 
Q 3125 2378 3379 2068 
Q 3634 1759 3634 1313 
Q 3634 634 3220 271 
Q 2806 -91 2034 -91 
Q 1263 -91 848 271 
Q 434 634 434 1313 
Q 434 1759 690 2068 
Q 947 2378 1403 2484 
z
M 1172 3481 
Q 1172 3119 1398 2916 
Q 1625 2713 2034 2713 
Q 2441 2713 2670 2916 
Q 2900 3119 2900 3481 
Q 2900 3844 2670 4047 
Q 2441 4250 2034 4250 
Q 1625 4250 1398 4047 
Q 1172 3844 1172 3481 
z
" transform="scale(0.015625)"/>
       </defs>
       <use xlink:href="#DejaVuSans-30"/>
       <use xlink:href="#DejaVuSans-2e" x="63.623047"/>
       <use xlink:href="#DejaVuSans-38" x="95.410156"/>
      </g>
     </g>
    </g>
    <g id="xtick_6">
     <g id="line2d_6">
      <g>
       <use xlink:href="#m31eaf5d019" x="311.318182" y="320.4" style="stroke: #000000; stroke-width: 0.8"/>
      </g>
     </g>
     <g id="text_6">
      <!-- 1.0 -->
      <g transform="translate(303.366619 334.998438)scale(0.1 -0.1)">
       <defs>
        <path id="DejaVuSans-31" d="M 794 531 
L 1825 531 
L 1825 4091 
L 703 3866 
L 703 4441 
L 1819 4666 
L 2450 4666 
L 2450 531 
L 3481 531 
L 3481 0 
L 794 0 
L 794 531 
z
" transform="scale(0.015625)"/>
       </defs>
       <use xlink:href="#DejaVuSans-31"/>
       <use xlink:href="#DejaVuSans-2e" x="63.623047"/>
       <use xlink:href="#DejaVuSans-30" x="95.410156"/>
      </g>
     </g>
    </g>
    <g id="text_7">
     <!-- False Positive Rate -->
     <g transform="translate(138.033594 348.676562)scale(0.1 -0.1)">
      <defs>
       <path id="DejaVuSans-46" d="M 628 4666 
L 3309 4666 
L 3309 4134 
L 1259 4134 
L 1259 2759 
L 3109 2759 
L 3109 2228 
L 1259 2228 
L 1259 0 
L 628 0 
L 628 4666 
z
" transform="scale(0.015625)"/>
       <path id="DejaVuSans-61" d="M 2194 1759 
Q 1497 1759 1228 1600 
Q 959 1441 959 1056 
Q 959 750 1161 570 
Q 1363 391 1709 391 
Q 2188 391 2477 730 
Q 2766 1069 2766 1631 
L 2766 1759 
L 2194 1759 
z
M 3341 1997 
L 3341 0 
L 2766 0 
L 2766 531 
Q 2569 213 2275 61 
Q 1981 -91 1556 -91 
Q 1019 -91 701 211 
Q 384 513 384 1019 
Q 384 1609 779 1909 
Q 1175 2209 1959 2209 
L 2766 2209 
L 2766 2266 
Q 2766 2663 2505 2880 
Q 2244 3097 1772 3097 
Q 1472 3097 1187 3025 
Q 903 2953 641 2809 
L 641 3341 
Q 956 3463 1253 3523 
Q 1550 3584 1831 3584 
Q 2591 3584 2966 3190 
Q 3341 2797 3341 1997 
z
" transform="scale(0.015625)"/>
       <path id="DejaVuSans-6c" d="M 603 4863 
L 1178 4863 
L 1178 0 
L 603 0 
L 603 4863 
z
" transform="scale(0.015625)"/>
       <path id="DejaVuSans-73" d="M 2834 3397 
L 2834 2853 
Q 2591 2978 2328 3040 
Q 2066 3103 1784 3103 
Q 1356 3103 1142 2972 
Q 928 2841 928 2578 
Q 928 2378 1081 2264 
Q 1234 2150 1697 2047 
L 1894 2003 
Q 2506 1872 2764 1633 
Q 3022 1394 3022 966 
Q 3022 478 2636 193 
Q 2250 -91 1575 -91 
Q 1294 -91 989 -36 
Q 684 19 347 128 
L 347 722 
Q 666 556 975 473 
Q 1284 391 1588 391 
Q 1994 391 2212 530 
Q 2431 669 2431 922 
Q 2431 1156 2273 1281 
Q 2116 1406 1581 1522 
L 1381 1569 
Q 847 1681 609 1914 
Q 372 2147 372 2553 
Q 372 3047 722 3315 
Q 1072 3584 1716 3584 
Q 2034 3584 2315 3537 
Q 2597 3491 2834 3397 
z
" transform="scale(0.015625)"/>
       <path id="DejaVuSans-65" d="M 3597 1894 
L 3597 1613 
L 953 1613 
Q 991 1019 1311 708 
Q 1631 397 2203 397 
Q 2534 397 2845 478 
Q 3156 559 3463 722 
L 3463 178 
Q 3153 47 2828 -22 
Q 2503 -91 2169 -91 
Q 1331 -91 842 396 
Q 353 884 353 1716 
Q 353 2575 817 3079 
Q 1281 3584 2069 3584 
Q 2775 3584 3186 3129 
Q 3597 2675 3597 1894 
z
M 3022 2063 
Q 3016 2534 2758 2815 
Q 2500 3097 2075 3097 
Q 1594 3097 1305 2825 
Q 1016 2553 972 2059 
L 3022 2063 
z
" transform="scale(0.015625)"/>
       <path id="DejaVuSans-20" transform="scale(0.015625)"/>
       <path id="DejaVuSans-50" d="M 1259 4147 
L 1259 2394 
L 2053 2394 
Q 2494 2394 2734 2622 
Q 2975 2850 2975 3272 
Q 2975 3691 2734 3919 
Q 2494 4147 2053 4147 
L 1259 4147 
z
M 628 4666 
L 2053 4666 
Q 2838 4666 3239 4311 
Q 3641 3956 3641 3272 
Q 3641 2581 3239 2228 
Q 2838 1875 2053 1875 
L 1259 1875 
L 1259 0 
L 628 0 
L 628 4666 
z
" transform="scale(0.015625)"/>
       <path id="DejaVuSans-6f" d="M 1959 3097 
Q 1497 3097 1228 2736 
Q 959 2375 959 1747 
Q 959 1119 1226 758 
Q 1494 397 1959 397 
Q 2419 397 2687 759 
Q 2956 1122 2956 1747 
Q 2956 2369 2687 2733 
Q 2419 3097 1959 3097 
z
M 1959 3584 
Q 2709 3584 3137 3096 
Q 3566 2609 3566 1747 
Q 3566 888 3137 398 
Q 2709 -91 1959 -91 
Q 1206 -91 779 398 
Q 353 888 353 1747 
Q 353 2609 779 3096 
Q 1206 3584 1959 3584 
z
" transform="scale(0.015625)"/>
       <path id="DejaVuSans-69" d="M 603 3500 
L 1178 3500 
L 1178 0 
L 603 0 
L 603 3500 
z
M 603 4863 
L 1178 4863 
L 1178 4134 
L 603 4134 
L 603 4863 
z
" transform="scale(0.015625)"/>
       <path id="DejaVuSans-74" d="M 1172 4494 
L 1172 3500 
L 2356 3500 
L 2356 3053 
L 1172 3053 
L 1172 1153 
Q 1172 725 1289 603 
Q 1406 481 1766 481 
L 2356 481 
L 2356 0 
L 1766 0 
Q 1100 0 847 248 
Q 594 497 594 1153 
L 594 3053 
L 172 3053 
L 172 3500 
L 594 3500 
L 594 4494 
L 1172 4494 
z
" transform="scale(0.015625)"/>
       <path id="DejaVuSans-76" d="M 191 3500 
L 800 3500 
L 1894 563 
L 2988 3500 
L 3597 3500 
L 2284 0 
L 1503 0 
L 191 3500 
z
" transform="scale(0.015625)"/>
       <path id="DejaVuSans-52" d="M 2841 2188 
Q 3044 2119 3236 1894 
Q 3428 1669 3622 1275 
L 4263 0 
L 3584 0 
L 2988 1197 
Q 2756 1666 2539 1819 
Q 2322 1972 1947 1972 
L 1259 1972 
L 1259 0 
L 628 0 
L 628 4666 
L 2053 4666 
Q 2853 4666 3247 4331 
Q 3641 3997 3641 3322 
Q 3641 2881 3436 2590 
Q 3231 2300 2841 2188 
z
M 1259 4147 
L 1259 2491 
L 2053 2491 
Q 2509 2491 2742 2702 
Q 2975 2913 2975 3322 
Q 2975 3731 2742 3939 
Q 2509 4147 2053 4147 
L 1259 4147 
z
" transform="scale(0.015625)"/>
      </defs>
      <use xlink:href="#DejaVuSans-46"/>
      <use xlink:href="#DejaVuSans-61" x="48.394531"/>
      <use xlink:href="#DejaVuSans-6c" x="109.673828"/>
      <use xlink:href="#DejaVuSans-73" x="137.457031"/>
      <use xlink:href="#DejaVuSans-65" x="189.556641"/>
      <use xlink:href="#DejaVuSans-20" x="251.080078"/>
      <use xlink:href="#DejaVuSans-50" x="282.867188"/>
      <use xlink:href="#DejaVuSans-6f" x="339.544922"/>
      <use xlink:href="#DejaVuSans-73" x="400.726562"/>
      <use xlink:href="#DejaVuSans-69" x="452.826172"/>
      <use xlink:href="#DejaVuSans-74" x="480.609375"/>
      <use xlink:href="#DejaVuSans-69" x="519.818359"/>
      <use xlink:href="#DejaVuSans-76" x="547.601562"/>
      <use xlink:href="#DejaVuSans-65" x="606.78125"/>
      <use xlink:href="#DejaVuSans-20" x="668.304688"/>
      <use xlink:href="#DejaVuSans-52" x="700.091797"/>
      <use xlink:href="#DejaVuSans-61" x="767.324219"/>
      <use xlink:href="#DejaVuSans-74" x="828.603516"/>
      <use xlink:href="#DejaVuSans-65" x="867.8125"/>
     </g>
    </g>
   </g>
   <g id="matplotlib.axis_2">
    <g id="ytick_1">
     <g id="line2d_7">
      <defs>
       <path id="mba27905dc3" d="M 0 0 
L -3.5 0 
" style="stroke: #000000; stroke-width: 0.8"/>
      </defs>
      <g>
       <use xlink:href="#mba27905dc3" x="45" y="307.8" style="stroke: #000000; stroke-width: 0.8"/>
      </g>
     </g>
     <g id="text_8">
      <!-- 0.0 -->
      <g transform="translate(22.096875 311.599219)scale(0.1 -0.1)">
       <use xlink:href="#DejaVuSans-30"/>
       <use xlink:href="#DejaVuSans-2e" x="63.623047"/>
       <use xlink:href="#DejaVuSans-30" x="95.410156"/>
      </g>
     </g>
    </g>
    <g id="ytick_2">
     <g id="line2d_8">
      <g>
       <use xlink:href="#mba27905dc3" x="45" y="257.4" style="stroke: #000000; stroke-width: 0.8"/>
      </g>
     </g>
     <g id="text_9">
      <!-- 0.2 -->
      <g transform="translate(22.096875 261.199219)scale(0.1 -0.1)">
       <use xlink:href="#DejaVuSans-30"/>
       <use xlink:href="#DejaVuSans-2e" x="63.623047"/>
       <use xlink:href="#DejaVuSans-32" x="95.410156"/>
      </g>
     </g>
    </g>
    <g id="ytick_3">
     <g id="line2d_9">
      <g>
       <use xlink:href="#mba27905dc3" x="45" y="207" style="stroke: #000000; stroke-width: 0.8"/>
      </g>
     </g>
     <g id="text_10">
      <!-- 0.4 -->
      <g transform="translate(22.096875 210.799219)scale(0.1 -0.1)">
       <use xlink:href="#DejaVuSans-30"/>
       <use xlink:href="#DejaVuSans-2e" x="63.623047"/>
       <use xlink:href="#DejaVuSans-34" x="95.410156"/>
      </g>
     </g>
    </g>
    <g id="ytick_4">
     <g id="line2d_10">
      <g>
       <use xlink:href="#mba27905dc3" x="45" y="156.6" style="stroke: #000000; stroke-width: 0.8"/>
      </g>
     </g>
     <g id="text_11">
      <!-- 0.6 -->
      <g transform="translate(22.096875 160.399219)scale(0.1 -0.1)">
       <use xlink:href="#DejaVuSans-30"/>
       <use xlink:href="#DejaVuSans-2e" x="63.623047"/>
       <use xlink:href="#DejaVuSans-36" x="95.410156"/>
      </g>
     </g>
    </g>
    <g id="ytick_5">
     <g id="line2d_11">
      <g>
       <use xlink:href="#mba27905dc3" x="45" y="106.2" style="stroke: #000000; stroke-width: 0.8"/>
      </g>
     </g>
     <g id="text_12">
      <!-- 0.8 -->
      <g transform="translate(22.096875 109.999219)scale(0.1 -0.1)">
       <use xlink:href="#DejaVuSans-30"/>
       <use xlink:href="#DejaVuSans-2e" x="63.623047"/>
       <use xlink:href="#DejaVuSans-38" x="95.410156"/>
      </g>
     </g>
    </g>
    <g id="ytick_6">
     <g id="line2d_12">
      <g>
       <use xlink:href="#mba27905dc3" x="45" y="55.8" style="stroke: #000000; stroke-width: 0.8"/>
      </g>
     </g>
     <g id="text_13">
      <!-- 1.0 -->
      <g transform="translate(22.096875 59.599219)scale(0.1 -0.1)">
       <use xlink:href="#DejaVuSans-31"/>
       <use xlink:href="#DejaVuSans-2e" x="63.623047"/>
       <use xlink:href="#DejaVuSans-30" x="95.410156"/>
      </g>
     </g>
    </g>
    <g id="text_14">
     <!-- True Positive Rate -->
     <g transform="translate(16.017187 226.329687)rotate(-90)scale(0.1 -0.1)">
      <defs>
       <path id="DejaVuSans-54" d="M -19 4666 
L 3928 4666 
L 3928 4134 
L 2272 4134 
L 2272 0 
L 1638 0 
L 1638 4134 
L -19 4134 
L -19 4666 
z
" transform="scale(0.015625)"/>
       <path id="DejaVuSans-72" d="M 2631 2963 
Q 2534 3019 2420 3045 
Q 2306 3072 2169 3072 
Q 1681 3072 1420 2755 
Q 1159 2438 1159 1844 
L 1159 0 
L 581 0 
L 581 3500 
L 1159 3500 
L 1159 2956 
Q 1341 3275 1631 3429 
Q 1922 3584 2338 3584 
Q 2397 3584 2469 3576 
Q 2541 3569 2628 3553 
L 2631 2963 
z
" transform="scale(0.015625)"/>
       <path id="DejaVuSans-75" d="M 544 1381 
L 544 3500 
L 1119 3500 
L 1119 1403 
Q 1119 906 1312 657 
Q 1506 409 1894 409 
Q 2359 409 2629 706 
Q 2900 1003 2900 1516 
L 2900 3500 
L 3475 3500 
L 3475 0 
L 2900 0 
L 2900 538 
Q 2691 219 2414 64 
Q 2138 -91 1772 -91 
Q 1169 -91 856 284 
Q 544 659 544 1381 
z
M 1991 3584 
L 1991 3584 
z
" transform="scale(0.015625)"/>
      </defs>
      <use xlink:href="#DejaVuSans-54"/>
      <use xlink:href="#DejaVuSans-72" x="46.333984"/>
      <use xlink:href="#DejaVuSans-75" x="87.447266"/>
      <use xlink:href="#DejaVuSans-65" x="150.826172"/>
      <use xlink:href="#DejaVuSans-20" x="212.349609"/>
      <use xlink:href="#DejaVuSans-50" x="244.136719"/>
      <use xlink:href="#DejaVuSans-6f" x="300.814453"/>
      <use xlink:href="#DejaVuSans-73" x="361.996094"/>
      <use xlink:href="#DejaVuSans-69" x="414.095703"/>
      <use xlink:href="#DejaVuSans-74" x="441.878906"/>
      <use xlink:href="#DejaVuSans-69" x="481.087891"/>
      <use xlink:href="#DejaVuSans-76" x="508.871094"/>
      <use xlink:href="#DejaVuSans-65" x="568.050781"/>
      <use xlink:href="#DejaVuSans-20" x="629.574219"/>
      <use xlink:href="#DejaVuSans-52" x="661.361328"/>
      <use xlink:href="#DejaVuSans-61" x="728.59375"/>
      <use xlink:href="#DejaVuSans-74" x="789.873047"/>
      <use xlink:href="#DejaVuSans-65" x="829.082031"/>
     </g>
    </g>
   </g>
   <g id="line2d_13">
    <path d="M 57.681818 307.8 
L 57.782969 288.994784 
L 57.833545 288.994784 
L 57.934696 282.423069 
L 57.985271 282.423069 
L 58.086423 272.110532 
L 58.136998 272.110532 
L 58.238149 270.290672 
L 58.288725 270.290672 
L 58.389876 264.679438 
L 58.440451 264.679438 
L 58.541602 261.949649 
L 58.592178 261.949649 
L 58.693329 257.09669 
L 58.743905 257.09669 
L 58.79448 256.18676 
L 58.895631 256.18676 
L 58.996782 253.709729 
L 59.047358 253.709729 
L 59.148509 249.716148 
L 59.199085 249.716148 
L 59.300236 248.55346 
L 59.350811 248.55346 
L 59.451962 245.874223 
L 59.553113 245.874223 
L 59.654264 244.357673 
L 59.70484 244.357673 
L 59.805991 241.274022 
L 59.856567 241.274022 
L 59.957718 235.460582 
L 60.008293 235.460582 
L 60.109444 232.629689 
L 60.16002 232.629689 
L 60.261171 230.50652 
L 60.412898 230.405416 
L 60.514049 228.787763 
L 60.564624 228.787763 
L 60.665775 227.119559 
L 60.766926 227.018455 
L 60.868078 225.805216 
L 60.918653 225.805216 
L 61.019804 224.844734 
L 61.120955 224.844734 
L 61.222106 223.47984 
L 61.323258 223.47984 
L 61.424409 221.912738 
L 61.474984 221.912738 
L 61.576135 220.042327 
L 61.626711 220.042327 
L 61.727862 217.919157 
L 61.778437 217.919157 
L 61.879589 214.582748 
L 61.930164 214.582748 
L 62.031315 212.863992 
L 62.081891 212.863992 
L 62.183042 211.701304 
L 62.233617 211.701304 
L 62.334768 210.993581 
L 62.43592 210.993581 
L 62.537071 208.415446 
L 62.638222 208.364895 
L 62.688797 206.747242 
L 62.840524 206.646138 
L 62.941675 204.573521 
L 62.992251 204.573521 
L 63.093402 203.562487 
L 63.143977 203.562487 
L 63.245128 201.692076 
L 63.295704 201.692076 
L 63.396855 199.821665 
L 63.498006 199.821665 
L 63.599157 198.962287 
L 63.649733 198.962287 
L 63.750884 198.001805 
L 63.801459 198.001805 
L 63.90261 196.333601 
L 63.953186 196.333601 
L 64.054337 195.575326 
L 64.104913 195.575326 
L 64.155488 195.170913 
L 64.256639 195.170913 
L 64.35779 193.806018 
L 64.458941 193.755466 
L 64.509517 191.480642 
L 64.610668 191.480642 
L 64.711819 190.014644 
L 64.863546 189.913541 
L 64.964697 189.458576 
L 65.065848 189.357472 
L 65.166999 187.739819 
L 65.369301 187.638716 
L 65.470452 186.627683 
L 65.571603 186.627683 
L 65.672754 184.150652 
L 65.72333 184.150652 
L 65.824481 183.49348 
L 65.875057 183.49348 
L 65.976208 180.864794 
L 66.026783 180.864794 
L 66.127934 179.853761 
L 66.279661 179.752658 
L 66.380812 177.932798 
L 66.532539 177.932798 
L 66.63369 177.37673 
L 66.684265 177.37673 
L 66.785416 176.77011 
L 66.835992 176.77011 
L 66.886568 176.315145 
L 66.987719 176.315145 
L 67.08887 175.101906 
L 67.139445 175.101906 
L 67.240596 174.596389 
L 67.341747 174.545838 
L 67.442899 173.484253 
L 67.594625 173.383149 
L 67.695776 173.07984 
L 67.746352 173.07984 
L 67.847503 172.220461 
L 67.948654 172.16991 
L 68.049805 171.967703 
L 68.150956 171.917151 
L 68.252107 171.56329 
L 68.302683 171.56329 
L 68.403834 171.158877 
L 68.454409 171.158877 
L 68.555561 170.451153 
L 68.606136 170.451153 
L 68.707287 170.04674 
L 68.757863 170.04674 
L 68.859014 169.692879 
L 68.909589 169.692879 
L 68.960165 168.530191 
L 69.111892 168.530191 
L 69.162467 168.075226 
L 69.263618 168.075226 
L 69.364769 167.316951 
L 69.415345 167.316951 
L 69.516496 166.760883 
L 69.567072 166.760883 
L 69.668223 166.407021 
L 69.819949 166.356469 
L 69.9211 165.244333 
L 70.022251 165.244333 
L 70.123403 164.53661 
L 70.275129 164.53661 
L 70.275129 164.384955 
L 70.426856 164.384955 
L 70.528007 164.182748 
L 70.578582 164.182748 
L 70.679734 163.778335 
L 70.780885 163.677232 
L 70.882036 162.11013 
L 70.932611 162.11013 
L 71.033762 161.200201 
L 71.134913 161.099097 
L 71.185489 160.492477 
L 71.387791 160.391374 
L 71.488942 159.582548 
L 71.691244 159.481444 
L 71.792396 159.279238 
L 71.842971 159.279238 
L 71.842971 158.824273 
L 71.994698 158.824273 
L 72.095849 158.369308 
L 72.298151 158.318756 
L 72.399302 157.459378 
L 72.500453 157.408826 
L 72.601604 155.892277 
L 72.65218 155.892277 
L 72.753331 155.588967 
L 72.803906 155.588967 
L 72.905058 155.134002 
L 72.955633 155.134002 
L 73.056784 154.274624 
L 73.10736 154.274624 
L 73.208511 153.870211 
L 73.309662 153.769107 
L 73.410813 152.960281 
L 73.56254 152.859178 
L 73.663691 152.555868 
L 73.714266 152.555868 
L 73.815417 151.292076 
L 73.865993 151.292076 
L 73.967144 150.736008 
L 74.068295 150.634905 
L 74.118871 150.281043 
L 74.371748 150.17994 
L 74.422324 149.57332 
L 74.574051 149.472217 
L 74.675202 148.612839 
L 74.725777 148.612839 
L 74.826928 147.702909 
L 74.877504 147.702909 
L 74.978655 147.247944 
L 75.079806 147.146841 
L 75.180957 146.338014 
L 75.282108 146.236911 
L 75.383259 145.832497 
L 75.48441 145.781946 
L 75.585561 144.872016 
L 75.636137 144.872016 
L 75.737288 144.164293 
L 75.838439 144.164293 
L 75.93959 143.406018 
L 76.040741 143.355466 
L 76.141893 143.15326 
L 76.243044 143.052156 
L 76.344195 142.496088 
L 76.39477 142.496088 
L 76.495921 142.041123 
L 76.647648 141.990572 
L 76.748799 140.676229 
L 76.799375 140.676229 
L 76.900526 140.221264 
L 77.052252 140.12016 
L 77.153403 139.564092 
L 77.254555 139.462989 
L 77.30513 139.058576 
L 77.406281 139.058576 
L 77.507432 138.704714 
L 77.709734 138.603611 
L 77.76031 138.350853 
L 77.861461 138.350853 
L 77.962612 137.390371 
L 78.114339 137.339819 
L 78.21549 136.7332 
L 78.266065 136.7332 
L 78.316641 135.974925 
L 78.417792 135.974925 
L 78.518943 135.115547 
L 78.620094 135.014443 
L 78.721245 134.660582 
L 78.974123 134.559478 
L 78.974123 134.508927 
L 79.328152 134.407823 
L 79.429303 133.548445 
L 79.479879 133.548445 
L 79.479879 133.346239 
L 79.732756 133.245135 
L 79.833907 132.436309 
L 79.985634 132.335206 
L 80.086785 131.880241 
L 80.187936 131.829689 
L 80.289087 131.020863 
L 80.339663 131.020863 
L 80.440814 130.667001 
L 80.491389 130.667001 
L 80.592541 130.212036 
L 80.744267 130.110933 
L 80.845418 129.908726 
L 80.895994 129.908726 
L 80.997145 128.998796 
L 81.04772 128.998796 
L 81.148872 128.49328 
L 81.300598 128.392177 
L 81.300598 128.139418 
L 81.5029 128.139418 
L 81.553476 127.88666 
L 81.856929 127.836108 
L 81.95808 127.178937 
L 82.059231 127.077834 
L 82.109807 126.521765 
L 82.210958 126.521765 
L 82.261534 126.269007 
L 82.362685 126.269007 
L 82.362685 126.117352 
L 82.564987 126.0668 
L 82.615562 125.662387 
L 82.716713 125.662387 
L 82.817865 125.207422 
L 82.919016 125.156871 
L 83.020167 124.499699 
L 83.171893 124.499699 
L 83.222469 123.488666 
L 83.374196 123.438114 
L 83.475347 122.780943 
L 83.525922 122.780943 
L 83.627073 122.325978 
L 83.879951 122.224875 
L 83.981102 121.921565 
L 84.031678 121.921565 
L 84.132829 121.668806 
L 84.183404 121.668806 
L 84.284555 121.213842 
L 84.486858 121.112738 
L 84.486858 121.062187 
L 84.638584 121.062187 
L 84.739735 120.708325 
L 84.891462 120.708325 
L 84.992613 120.101705 
L 85.043189 120.101705 
L 85.093764 119.596189 
L 85.245491 119.596189 
L 85.346642 118.73681 
L 85.548944 118.635707 
L 85.650095 118.079639 
L 85.953548 118.079639 
L 86.004124 117.826881 
L 86.155851 117.725777 
L 86.206426 117.624674 
L 86.408728 117.523571 
L 86.459304 117.169709 
L 86.712182 117.119157 
L 86.813333 116.310331 
L 86.863908 116.310331 
L 86.965059 115.956469 
L 87.06621 115.855366 
L 87.167362 115.602608 
L 87.420239 115.552056 
L 87.52139 115.299298 
L 87.824844 115.198195 
L 87.875419 114.793781 
L 88.027146 114.793781 
L 88.128297 114.288265 
L 88.280024 114.187161 
L 88.280024 114.086058 
L 88.532901 113.984955 
L 88.634052 113.479438 
L 88.836355 113.378335 
L 88.937506 112.973922 
L 89.139808 112.92337 
L 89.240959 112.62006 
L 89.443261 112.518957 
L 89.443261 112.31675 
L 89.746714 112.215647 
L 89.847865 112.063992 
L 90.151319 111.962889 
L 90.25247 111.356269 
L 90.353621 111.255165 
L 90.454772 110.951856 
L 90.505348 110.951856 
L 90.606499 110.699097 
L 90.758225 110.648546 
L 90.859376 110.446339 
L 91.061679 110.345236 
L 91.061679 110.294684 
L 91.263981 110.294684 
L 91.365132 109.839719 
L 91.415707 109.839719 
L 91.516859 109.283651 
L 91.668585 109.182548 
L 91.719161 108.778134 
L 91.820312 108.778134 
L 91.820312 108.626479 
L 91.972038 108.626479 
L 92.022614 108.424273 
L 92.224916 108.32317 
L 92.326067 108.171515 
L 92.477794 108.070411 
L 92.477794 107.868205 
L 92.629521 107.868205 
L 92.730672 107.463791 
L 92.781247 107.463791 
L 92.882398 106.958275 
L 93.034125 106.857172 
L 93.0847 106.654965 
L 93.236427 106.604413 
L 93.287003 106.452758 
L 93.641031 106.351655 
L 93.742183 105.89669 
L 93.792758 105.89669 
L 93.893909 105.441725 
L 93.944485 105.441725 
L 93.944485 105.239519 
L 94.197362 105.138415 
L 94.247938 104.734002 
L 94.399665 104.734002 
L 94.500816 104.279037 
L 94.652542 104.177934 
L 94.703118 103.975727 
L 95.057147 103.874624 
L 95.158298 103.672417 
L 95.411176 103.571314 
L 95.512327 103.419659 
L 95.664053 103.318556 
L 95.765204 103.116349 
L 96.018082 103.015246 
L 96.018082 102.863591 
L 96.321535 102.813039 
L 96.372111 102.459178 
L 96.72614 102.408626 
L 96.827291 102.256971 
L 96.979017 102.206419 
L 97.029593 101.953661 
L 97.130744 101.953661 
L 97.18132 101.751454 
L 97.434197 101.650351 
L 97.535348 101.397593 
L 97.737651 101.296489 
L 97.838802 101.144835 
L 97.889377 101.144835 
L 97.889377 100.841525 
L 98.445708 100.740421 
L 98.445708 100.68987 
L 98.850313 100.639318 
L 98.900888 100.133801 
L 99.608946 100.032698 
L 99.659521 99.881043 
L 100.317004 99.77994 
L 100.418155 99.628285 
L 100.620457 99.577733 
L 100.721608 99.324975 
L 100.873335 99.223872 
L 100.92391 99.122768 
L 101.075637 99.072217 
L 101.126212 98.920562 
L 101.277939 98.87001 
L 101.277939 98.768907 
L 101.581392 98.667803 
L 101.631968 98.516148 
L 101.935421 98.415045 
L 102.036572 97.96008 
L 102.087148 97.96008 
L 102.188299 97.606219 
L 102.340025 97.505115 
L 102.340025 97.404012 
L 102.643479 97.302909 
L 102.74463 97.201805 
L 102.845781 97.100702 
L 102.896356 96.999599 
L 103.300961 96.898495 
L 103.351536 96.797392 
L 103.604414 96.696289 
L 103.705565 96.494082 
L 104.009018 96.443531 
L 104.110169 96.291876 
L 104.565349 96.190772 
L 104.615925 95.938014 
L 104.818227 95.887462 
L 104.919378 95.483049 
L 105.222832 95.381946 
L 105.323983 95.280843 
L 105.678011 95.230291 
L 105.779163 94.926981 
L 106.183767 94.825878 
L 106.284918 94.573119 
L 106.48722 94.472016 
L 106.48722 94.370913 
L 106.638947 94.370913 
L 106.638947 94.219258 
L 106.9424 94.168706 
L 106.992976 94.017051 
L 107.094127 94.017051 
L 107.195278 93.66319 
L 107.39758 93.562086 
L 107.498731 93.35988 
L 107.701033 93.35988 
L 107.701033 93.208225 
L 107.953911 93.107121 
L 108.004487 92.955466 
L 108.30794 92.854363 
L 108.30794 92.75326 
L 108.611393 92.652156 
L 108.712544 92.44995 
L 108.76312 92.44995 
L 108.864271 92.247743 
L 109.2183 92.14664 
L 109.268875 91.893882 
L 109.420602 91.792778 
L 109.471177 91.590572 
L 109.622904 91.54002 
L 109.622904 91.388365 
L 110.027508 91.337813 
L 110.078084 90.882849 
L 110.330962 90.781745 
L 110.432113 90.528987 
L 110.68499 90.427884 
L 110.68499 90.225677 
L 111.089595 90.124574 
L 111.14017 89.922367 
L 111.342473 89.922367 
L 111.443624 89.669609 
L 111.696501 89.568506 
L 111.797652 89.467402 
L 111.898804 89.416851 
L 111.898804 89.315747 
L 112.303408 89.214644 
L 112.303408 89.113541 
L 112.708012 89.012437 
L 112.758588 88.860782 
L 113.062041 88.759679 
L 113.062041 88.506921 
L 113.213768 88.506921 
L 113.213768 88.254162 
L 113.618372 88.153059 
L 113.618372 88.051956 
L 114.174703 87.950853 
L 114.174703 87.849749 
L 114.579308 87.748646 
L 114.629883 87.596991 
L 114.832185 87.495888 
L 114.832185 87.445336 
L 115.186214 87.344233 
L 115.287365 87.142026 
L 115.388516 87.142026 
L 115.439092 86.939819 
L 115.793121 86.838716 
L 115.843696 86.687061 
L 116.400027 86.585958 
L 116.501178 86.383751 
L 116.602329 86.282648 
L 116.70348 86.080441 
L 117.057509 86.02989 
L 117.057509 85.928786 
L 117.360963 85.928786 
L 117.462114 85.574925 
L 117.563265 85.524373 
L 117.61384 85.322166 
L 118.271322 85.221063 
L 118.271322 85.018857 
L 118.473625 85.018857 
L 118.473625 84.81665 
L 119.282833 84.715547 
L 119.383984 84.462788 
L 119.687438 84.412237 
L 119.788589 84.21003 
L 119.940315 84.159478 
L 119.940315 84.058375 
L 120.142618 83.957272 
L 120.142618 83.90672 
L 120.850675 83.856169 
L 120.951826 83.653962 
L 121.103553 83.60341 
L 121.154129 83.401204 
L 121.407006 83.350652 
L 121.457582 83.148445 
L 122.165639 83.047342 
L 122.266791 82.794584 
L 122.317366 82.794584 
L 122.317366 82.642929 
L 122.671395 82.592377 
L 122.772546 82.440722 
L 122.974848 82.339619 
L 123.075999 82.238516 
L 123.328877 82.137412 
L 123.328877 82.036309 
L 123.480604 82.036309 
L 123.581755 81.631896 
L 124.036935 81.530792 
L 124.036935 81.429689 
L 124.289812 81.379137 
L 124.390963 80.974724 
L 124.643841 80.873621 
L 124.694417 80.772518 
L 125.250748 80.671414 
L 125.351899 80.418656 
L 125.756503 80.317553 
L 125.756503 80.216449 
L 126.768014 80.115346 
L 126.869165 79.761484 
L 127.020892 79.710933 
L 127.122043 79.458175 
L 128.234705 79.357071 
L 128.285281 79.255968 
L 128.437007 79.255968 
L 128.437007 79.053761 
L 128.588734 79.053761 
L 128.588734 78.801003 
L 128.993338 78.6999 
L 129.043914 78.598796 
L 129.296791 78.497693 
L 129.296791 78.447141 
L 129.65082 78.346038 
L 129.701396 78.244935 
L 130.409453 78.143831 
L 130.409453 78.09328 
L 130.712907 78.042728 
L 130.712907 77.941625 
L 131.01636 77.840522 
L 131.117511 77.587763 
L 131.319813 77.537212 
L 131.319813 77.284453 
L 131.623267 77.233902 
L 131.673842 77.082247 
L 132.331324 76.981143 
L 132.3819 76.88004 
L 132.938231 76.778937 
L 132.938231 76.728385 
L 133.747439 76.627282 
L 133.848591 76.526179 
L 134.809526 76.425075 
L 134.860102 76.121765 
L 135.365857 76.020662 
L 135.467008 75.717352 
L 136.073915 75.616249 
L 136.073915 75.565697 
L 136.630246 75.515145 
L 136.630246 75.414042 
L 137.641757 75.312939 
L 137.692332 75.161284 
L 138.248663 75.060181 
L 138.248663 75.009629 
L 138.703843 74.959077 
L 138.754419 74.655767 
L 139.462476 74.554664 
L 139.563627 74.352457 
L 140.271685 74.251354 
L 140.372836 73.998596 
L 140.524563 73.897492 
L 140.524563 73.846941 
L 140.828016 73.796389 
L 140.828016 73.695286 
L 141.434923 73.594183 
L 141.536074 73.442528 
L 142.14298 73.341424 
L 142.14298 73.290873 
L 142.395858 73.240321 
L 142.395858 73.088666 
L 142.699311 72.987563 
L 142.699311 72.937011 
L 143.255642 72.835908 
L 143.255642 72.684253 
L 143.9637 72.583149 
L 143.9637 72.532598 
L 144.722333 72.431494 
L 144.722333 72.380943 
L 145.278664 72.330391 
L 145.278664 72.229288 
L 146.34075 72.128185 
L 146.34075 72.027081 
L 146.947657 71.925978 
L 146.998233 71.824875 
L 147.908592 71.723771 
L 147.908592 71.67322 
L 148.212046 71.572116 
L 148.262621 71.471013 
L 149.729312 71.36991 
L 149.830463 71.218255 
L 151.246578 71.117151 
L 151.246578 71.0666 
L 151.752334 70.965496 
L 151.752334 70.914945 
L 152.106363 70.813842 
L 152.106363 70.76329 
L 153.674205 70.662187 
L 153.674205 70.611635 
L 154.483413 70.510532 
L 154.483413 70.409428 
L 154.888018 70.358877 
L 154.989169 70.106118 
L 155.140895 70.106118 
L 155.140895 69.954463 
L 155.5455 69.85336 
L 155.646651 69.701705 
L 156.607586 69.600602 
L 156.607586 69.55005 
L 157.669673 69.448947 
L 157.720248 69.347844 
L 157.973126 69.24674 
L 157.973126 69.095085 
L 158.782335 68.993982 
L 158.782335 68.94343 
L 159.28809 68.842327 
L 159.389241 68.741224 
L 160.097299 68.64012 
L 160.097299 68.589569 
L 160.249026 68.589569 
L 160.249026 68.437914 
L 161.007659 68.33681 
L 161.10881 68.084052 
L 161.614565 67.982949 
L 161.614565 67.932397 
L 162.727227 67.831294 
L 162.777803 67.679639 
L 163.232983 67.578536 
L 163.232983 67.527984 
L 163.991616 67.426881 
L 164.042192 67.325777 
L 164.547947 67.224674 
L 164.598523 67.123571 
L 165.256005 67.022467 
L 165.256005 66.971916 
L 165.862911 66.870812 
L 165.862911 66.820261 
L 167.1273 66.719157 
L 167.1273 66.668606 
L 167.784782 66.567503 
L 167.835358 66.466399 
L 168.138811 66.365296 
L 168.189386 66.264193 
L 168.897444 66.163089 
L 168.897444 66.112538 
L 169.807804 66.011434 
L 169.807804 65.960883 
L 170.212408 65.859779 
L 170.212408 65.809228 
L 170.971041 65.708124 
L 170.971041 65.657573 
L 171.426221 65.556469 
L 171.426221 65.505918 
L 172.387157 65.404814 
L 172.488308 65.303711 
L 173.449243 65.202608 
L 173.449243 65.152056 
L 174.410179 65.050953 
L 174.460754 64.94985 
L 175.017085 64.848746 
L 175.118236 64.747643 
L 175.927445 64.64654 
L 175.927445 64.545436 
L 176.584927 64.444333 
L 176.584927 64.34323 
L 177.748165 64.242126 
L 177.748165 64.191575 
L 179.265431 64.090471 
L 179.265431 64.03992 
L 179.973489 63.938816 
L 180.07464 63.837713 
L 180.883848 63.73661 
L 180.883848 63.686058 
L 181.945935 63.584955 
L 181.945935 63.534403 
L 183.008021 63.4333 
L 183.109172 63.332197 
L 184.828741 63.231093 
L 184.828741 63.12999 
L 186.851763 63.028887 
L 186.851763 62.927783 
L 187.408094 62.82668 
L 187.408094 62.776128 
L 188.166727 62.725577 
L 188.166727 62.624473 
L 188.621907 62.52337 
L 188.621907 62.422267 
L 189.532267 62.321163 
L 189.532267 62.270612 
L 191.150684 62.169509 
L 191.150684 62.118957 
L 193.123131 62.017854 
L 193.123131 61.967302 
L 194.640397 61.866199 
L 194.640397 61.815647 
L 195.85421 61.714544 
L 195.85421 61.562889 
L 197.017448 61.461785 
L 197.017448 61.411234 
L 197.523203 61.360682 
L 197.523203 61.209027 
L 197.927807 61.107924 
L 197.927807 61.057372 
L 199.091045 60.956269 
L 199.091045 60.905717 
L 199.647376 60.804614 
L 199.647376 60.703511 
L 200.153132 60.652959 
L 200.153132 60.551856 
L 202.378456 60.450752 
L 202.378456 60.400201 
L 203.288815 60.299097 
L 203.288815 60.248546 
L 204.957808 60.147442 
L 204.957808 60.096891 
L 205.665866 59.995787 
L 205.665866 59.945236 
L 207.89119 59.844132 
L 207.89119 59.743029 
L 209.459032 59.641926 
L 209.459032 59.591374 
L 210.824572 59.490271 
L 210.824572 59.439719 
L 211.734932 59.338616 
L 211.734932 59.288064 
L 212.948745 59.186961 
L 212.948745 59.136409 
L 213.353349 59.035306 
L 213.353349 58.984754 
L 214.769464 58.883651 
L 214.82004 58.782548 
L 217.702846 58.681444 
L 217.702846 58.630893 
L 218.916659 58.529789 
L 218.916659 58.479238 
L 221.141983 58.378134 
L 221.141983 58.277031 
L 221.951192 58.175928 
L 221.951192 58.125376 
L 222.861552 58.024273 
L 222.861552 57.973721 
L 225.440905 57.872618 
L 225.440905 57.822066 
L 229.537524 57.720963 
L 229.537524 57.670411 
L 230.397308 57.569308 
L 230.397308 57.518756 
L 235.758316 57.417653 
L 235.758316 57.367101 
L 237.730762 57.265998 
L 237.730762 57.215446 
L 241.928533 57.114343 
L 241.928533 57.063791 
L 244.507885 56.962688 
L 244.507885 56.912136 
L 246.632058 56.811033 
L 246.682634 56.70993 
L 256.94947 56.608826 
L 257.000045 56.507723 
L 263.574866 56.40662 
L 263.574866 56.356068 
L 272.931342 56.254965 
L 272.931342 56.204413 
L 276.825659 56.10331 
L 276.825659 56.052758 
L 281.630336 55.951655 
L 281.630336 55.901103 
L 311.318182 55.8 
L 311.318182 55.8 
" clip-path="url(#pb9755e382e)" style="fill: none; stroke: #1f77b4; stroke-width: 1.5; stroke-linecap: square"/>
   </g>
   <g id="line2d_14">
    <path d="M 57.681818 307.8 
L 311.318182 55.8 
" clip-path="url(#pb9755e382e)" style="fill: none; stroke-dasharray: 5.55,2.4; stroke-dashoffset: 0; stroke: #ff0000; stroke-width: 1.5"/>
   </g>
   <g id="patch_3">
    <path d="M 45 320.4 
L 45 43.2 
" style="fill: none; stroke: #000000; stroke-width: 0.8; stroke-linejoin: miter; stroke-linecap: square"/>
   </g>
   <g id="patch_4">
    <path d="M 324 320.4 
L 324 43.2 
" style="fill: none; stroke: #000000; stroke-width: 0.8; stroke-linejoin: miter; stroke-linecap: square"/>
   </g>
   <g id="patch_5">
    <path d="M 45 320.4 
L 324 320.4 
" style="fill: none; stroke: #000000; stroke-width: 0.8; stroke-linejoin: miter; stroke-linecap: square"/>
   </g>
   <g id="patch_6">
    <path d="M 45 43.2 
L 324 43.2 
" style="fill: none; stroke: #000000; stroke-width: 0.8; stroke-linejoin: miter; stroke-linecap: square"/>
   </g>
   <g id="text_15">
    <!-- ROC_8192_1024_2000 -->
    <g transform="translate(116.608125 37.2)scale(0.12 -0.12)">
     <defs>
      <path id="DejaVuSans-4f" d="M 2522 4238 
Q 1834 4238 1429 3725 
Q 1025 3213 1025 2328 
Q 1025 1447 1429 934 
Q 1834 422 2522 422 
Q 3209 422 3611 934 
Q 4013 1447 4013 2328 
Q 4013 3213 3611 3725 
Q 3209 4238 2522 4238 
z
M 2522 4750 
Q 3503 4750 4090 4092 
Q 4678 3434 4678 2328 
Q 4678 1225 4090 567 
Q 3503 -91 2522 -91 
Q 1538 -91 948 565 
Q 359 1222 359 2328 
Q 359 3434 948 4092 
Q 1538 4750 2522 4750 
z
" transform="scale(0.015625)"/>
      <path id="DejaVuSans-43" d="M 4122 4306 
L 4122 3641 
Q 3803 3938 3442 4084 
Q 3081 4231 2675 4231 
Q 1875 4231 1450 3742 
Q 1025 3253 1025 2328 
Q 1025 1406 1450 917 
Q 1875 428 2675 428 
Q 3081 428 3442 575 
Q 3803 722 4122 1019 
L 4122 359 
Q 3791 134 3420 21 
Q 3050 -91 2638 -91 
Q 1578 -91 968 557 
Q 359 1206 359 2328 
Q 359 3453 968 4101 
Q 1578 4750 2638 4750 
Q 3056 4750 3426 4639 
Q 3797 4528 4122 4306 
z
" transform="scale(0.015625)"/>
      <path id="DejaVuSans-5f" d="M 3263 -1063 
L 3263 -1509 
L -63 -1509 
L -63 -1063 
L 3263 -1063 
z
" transform="scale(0.015625)"/>
      <path id="DejaVuSans-39" d="M 703 97 
L 703 672 
Q 941 559 1184 500 
Q 1428 441 1663 441 
Q 2288 441 2617 861 
Q 2947 1281 2994 2138 
Q 2813 1869 2534 1725 
Q 2256 1581 1919 1581 
Q 1219 1581 811 2004 
Q 403 2428 403 3163 
Q 403 3881 828 4315 
Q 1253 4750 1959 4750 
Q 2769 4750 3195 4129 
Q 3622 3509 3622 2328 
Q 3622 1225 3098 567 
Q 2575 -91 1691 -91 
Q 1453 -91 1209 -44 
Q 966 3 703 97 
z
M 1959 2075 
Q 2384 2075 2632 2365 
Q 2881 2656 2881 3163 
Q 2881 3666 2632 3958 
Q 2384 4250 1959 4250 
Q 1534 4250 1286 3958 
Q 1038 3666 1038 3163 
Q 1038 2656 1286 2365 
Q 1534 2075 1959 2075 
z
" transform="scale(0.015625)"/>
     </defs>
     <use xlink:href="#DejaVuSans-52"/>
     <use xlink:href="#DejaVuSans-4f" x="69.482422"/>
     <use xlink:href="#DejaVuSans-43" x="148.193359"/>
     <use xlink:href="#DejaVuSans-5f" x="218.017578"/>
     <use xlink:href="#DejaVuSans-38" x="268.017578"/>
     <use xlink:href="#DejaVuSans-31" x="331.640625"/>
     <use xlink:href="#DejaVuSans-39" x="395.263672"/>
     <use xlink:href="#DejaVuSans-32" x="458.886719"/>
     <use xlink:href="#DejaVuSans-5f" x="522.509766"/>
     <use xlink:href="#DejaVuSans-31" x="572.509766"/>
     <use xlink:href="#DejaVuSans-30" x="636.132812"/>
     <use xlink:href="#DejaVuSans-32" x="699.755859"/>
     <use xlink:href="#DejaVuSans-34" x="763.378906"/>
     <use xlink:href="#DejaVuSans-5f" x="827.001953"/>
     <use xlink:href="#DejaVuSans-32" x="877.001953"/>
     <use xlink:href="#DejaVuSans-30" x="940.625"/>
     <use xlink:href="#DejaVuSans-30" x="1004.248047"/>
     <use xlink:href="#DejaVuSans-30" x="1067.871094"/>
    </g>
   </g>
   <g id="legend_1">
    <g id="patch_7">
     <path d="M 214.13125 315.4 
L 317 315.4 
Q 319 315.4 319 313.4 
L 319 299.721875 
Q 319 297.721875 317 297.721875 
L 214.13125 297.721875 
Q 212.13125 297.721875 212.13125 299.721875 
L 212.13125 313.4 
Q 212.13125 315.4 214.13125 315.4 
z
" style="fill: #ffffff; opacity: 0.8; stroke: #cccccc; stroke-linejoin: miter"/>
    </g>
    <g id="line2d_15">
     <path d="M 216.13125 305.820312 
L 226.13125 305.820312 
L 236.13125 305.820312 
" style="fill: none; stroke: #1f77b4; stroke-width: 1.5; stroke-linecap: square"/>
    </g>
    <g id="text_16">
     <!-- AUC = 0.9084 -->
     <g transform="translate(244.13125 309.320312)scale(0.1 -0.1)">
      <defs>
       <path id="DejaVuSans-41" d="M 2188 4044 
L 1331 1722 
L 3047 1722 
L 2188 4044 
z
M 1831 4666 
L 2547 4666 
L 4325 0 
L 3669 0 
L 3244 1197 
L 1141 1197 
L 716 0 
L 50 0 
L 1831 4666 
z
" transform="scale(0.015625)"/>
       <path id="DejaVuSans-55" d="M 556 4666 
L 1191 4666 
L 1191 1831 
Q 1191 1081 1462 751 
Q 1734 422 2344 422 
Q 2950 422 3222 751 
Q 3494 1081 3494 1831 
L 3494 4666 
L 4128 4666 
L 4128 1753 
Q 4128 841 3676 375 
Q 3225 -91 2344 -91 
Q 1459 -91 1007 375 
Q 556 841 556 1753 
L 556 4666 
z
" transform="scale(0.015625)"/>
       <path id="DejaVuSans-3d" d="M 678 2906 
L 4684 2906 
L 4684 2381 
L 678 2381 
L 678 2906 
z
M 678 1631 
L 4684 1631 
L 4684 1100 
L 678 1100 
L 678 1631 
z
" transform="scale(0.015625)"/>
      </defs>
      <use xlink:href="#DejaVuSans-41"/>
      <use xlink:href="#DejaVuSans-55" x="68.408203"/>
      <use xlink:href="#DejaVuSans-43" x="141.601562"/>
      <use xlink:href="#DejaVuSans-20" x="211.425781"/>
      <use xlink:href="#DejaVuSans-3d" x="243.212891"/>
      <use xlink:href="#DejaVuSans-20" x="327.001953"/>
      <use xlink:href="#DejaVuSans-30" x="358.789062"/>
      <use xlink:href="#DejaVuSans-2e" x="422.412109"/>
      <use xlink:href="#DejaVuSans-39" x="454.199219"/>
      <use xlink:href="#DejaVuSans-30" x="517.822266"/>
      <use xlink:href="#DejaVuSans-38" x="581.445312"/>
      <use xlink:href="#DejaVuSans-34" x="645.068359"/>
     </g>
    </g>
   </g>
  </g>
 </g>
 <defs>
  <clipPath id="pb9755e382e">
   <rect x="45" y="43.2" width="279" height="277.2"/>
  </clipPath>
 </defs>
</svg>
